brusselmans.ufo
<glyph name="exclam" format="1">
  <advance width="136"/>
  <unicode hex="0021"/>
  <outline>
    <contour>
      <point x="119" y="714" type="line"/>
      <point x="119" y="204" type="line"/>
      <point x="17" y="204" type="line"/>
      <point x="17" y="714" type="line"/>
    </contour>
    <contour>
      <point x="119" y="102" type="line"/>
      <point x="119" y="0" type="line"/>
      <point x="17" y="0" type="line"/>
      <point x="17" y="102" type="line"/>
    </contour>
  </outline>
</glyph>
<glyph name="ampersand" format="1">
  <advance width="544"/>
  <unicode hex="0026"/>
  <outline>
    <contour>
      <point x="119" y="612" type="line"/>
      <point x="119" y="408" type="line"/>
      <point x="272" y="408" type="line"/>
      <point x="272" y="306" type="line"/>
      <point x="102" y="306" type="line"/>
      <point x="17" y="391" type="line"/>
      <point x="17" y="629" type="line"/>
      <point x="102" y="714" type="line"/>
      <point x="340" y="714" type="line"/>
      <point x="425" y="629" type="line"/>
      <point x="425" y="561" type="line"/>
      <point x="323" y="561" type="line"/>
      <point x="323" y="612" type="line"/>
    </contour>
    <contour>
      <point x="119.0" y="102.0" type="line"/>
      <point x="323.0" y="102.0" type="line"/>
      <point x="323" y="323" type="line"/>
      <point x="408" y="408" type="line"/>
      <point x="527" y="408" type="line"/>
      <point x="527" y="306" type="line"/>
      <point x="425" y="306" type="line"/>
      <point x="425" y="85" type="line"/>
      <point x="340" y="0" type="line"/>
      <point x="102" y="0" type="line"/>
      <point x="17" y="85" type="line"/>
      <point x="17" y="221" type="line"/>
      <point x="204" y="408" type="line"/>
      <point x="272.0" y="408.0" type="line"/>
      <point x="272.0" y="306.0" type="line"/>
      <point x="119.0" y="306.0" type="line"/>
    </contour>
  </outline>
</glyph>
<glyph name="quotesingle" format="1">
  <advance width="135"/>
  <unicode hex="0027"/>
  <outline>
    <contour>
      <point x="119" y="510" type="line"/>
      <point x="17" y="510" type="line"/>
      <point x="17" y="714" type="line"/>
      <point x="119" y="714" type="line"/>
    </contour>
  </outline>
</glyph>
<glyph name="comma" format="1">
  <advance width="136"/>
  <unicode hex="002C"/>
  <outline>
    <contour>
      <point x="119.0" y="102.0" type="line"/>
      <point x="119.0" y="-102.0" type="line"/>
      <point x="17.0" y="-204.0" type="line"/>
      <point x="-85" y="-204" type="line"/>
      <point x="-85" y="-102" type="line"/>
      <point x="17.0" y="-102.0" type="line"/>
      <point x="17.0" y="102.0" type="line"/>
    </contour>
  </outline>
</glyph>
<glyph name="hyphen" format="1">
  <advance width="238"/>
  <unicode hex="002D"/>
  <outline>
    <contour>
      <point x="17" y="306" type="line"/>
      <point x="221" y="306" type="line"/>
      <point x="221" y="204" type="line"/>
      <point x="17" y="204" type="line"/>
    </contour>
  </outline>
</glyph>
<glyph name="slash" format="1">
  <advance width="136"/>
  <unicode hex="002F"/>
  <outline>
    <contour>
      <point x="119" y="-204" type="line"/>
      <point x="17" y="-204" type="line"/>
      <point x="17" y="714" type="line"/>
      <point x="119" y="714" type="line"/>
    </contour>
  </outline>
</glyph>
<glyph name="zero" format="1">
  <advance width="442"/>
  <unicode hex="0030"/>
  <outline>
    <contour>
      <point x="425" y="97" type="line" smooth="yes"/>
      <point x="425.0" y="90.0"/>
      <point x="422.0" y="82.0"/>
      <point x="417" y="77" type="curve" smooth="yes"/>
      <point x="348" y="8" type="line" smooth="yes"/>
      <point x="343.0" y="3.0"/>
      <point x="335.0" y="-8.57252759403e-16"/>
      <point x="328" y="0" type="curve" smooth="yes"/>
      <point x="114" y="0" type="line" smooth="yes"/>
      <point x="107.0" y="8.57252759403e-16"/>
      <point x="99.0" y="3.0"/>
      <point x="94" y="8" type="curve" smooth="yes"/>
      <point x="25" y="77" type="line" smooth="yes"/>
      <point x="20.0" y="82.0"/>
      <point x="17.0" y="90.0"/>
      <point x="17" y="97" type="curve" smooth="yes"/>
      <point x="17" y="617" type="line" smooth="yes"/>
      <point x="17.0" y="624.0"/>
      <point x="20.0" y="632.0"/>
      <point x="25" y="637" type="curve" smooth="yes"/>
      <point x="94" y="706" type="line" smooth="yes"/>
      <point x="99.0" y="711.0"/>
      <point x="107.0" y="714.0"/>
      <point x="114" y="714" type="curve" smooth="yes"/>
      <point x="328" y="714" type="line" smooth="yes"/>
      <point x="335.0" y="714.0"/>
      <point x="343.0" y="711.0"/>
      <point x="348" y="706" type="curve" smooth="yes"/>
      <point x="417" y="637" type="line" smooth="yes"/>
      <point x="422.0" y="632.0"/>
      <point x="425.0" y="624.0"/>
      <point x="425" y="617" type="curve" smooth="yes"/>
    </contour>
    <contour>
      <point x="119" y="102" type="line"/>
      <point x="323" y="102" type="line"/>
      <point x="323" y="612" type="line"/>
      <point x="119" y="612" type="line"/>
    </contour>
  </outline>
</glyph>
<glyph name="one" format="1">
  <advance width="238"/>
  <unicode hex="0031"/>
  <outline>
    <contour>
      <point x="17" y="714" type="line"/>
      <point x="170" y="714" type="line"/>
      <point x="170" y="612" type="line"/>
      <point x="17" y="612" type="line"/>
    </contour>
    <contour>
      <point x="221" y="0" type="line"/>
      <point x="119" y="0" type="line"/>
      <point x="119" y="714" type="line"/>
      <point x="221" y="714" type="line"/>
    </contour>
  </outline>
</glyph>
<glyph name="two" format="1">
  <advance width="442"/>
  <unicode hex="0032"/>
  <outline>
    <contour>
      <point x="323" y="612" type="line"/>
      <point x="119" y="612" type="line"/>
      <point x="119" y="561" type="line"/>
      <point x="17" y="561" type="line"/>
      <point x="17" y="612" type="line"/>
      <point x="119" y="714" type="line"/>
      <point x="323" y="714" type="line"/>
      <point x="425" y="612" type="line"/>
      <point x="425" y="408" type="line"/>
      <point x="323" y="306" type="line"/>
      <point x="119" y="306" type="line"/>
      <point x="119" y="102" type="line"/>
      <point x="425" y="102" type="line"/>
      <point x="425" y="0" type="line"/>
      <point x="17" y="0" type="line"/>
      <point x="17" y="306" type="line"/>
      <point x="119" y="408" type="line"/>
      <point x="323" y="408" type="line"/>
    </contour>
  </outline>
</glyph>
<glyph name="three" format="1">
  <advance width="442"/>
  <unicode hex="0033"/>
  <outline>
    <contour>
      <point x="323" y="102" type="line"/>
      <point x="323" y="306" type="line"/>
      <point x="119" y="306" type="line"/>
      <point x="119" y="408" type="line"/>
      <point x="340" y="408" type="line"/>
      <point x="425" y="323" type="line"/>
      <point x="425" y="85" type="line"/>
      <point x="340" y="0" type="line"/>
      <point x="102" y="0" type="line"/>
      <point x="17" y="85" type="line"/>
      <point x="17" y="153" type="line"/>
      <point x="119" y="153" type="line"/>
      <point x="119" y="102" type="line"/>
    </contour>
    <contour>
      <point x="323" y="612" type="line"/>
      <point x="119" y="612" type="line"/>
      <point x="119" y="561" type="line"/>
      <point x="17" y="561" type="line"/>
      <point x="17" y="629" type="line"/>
      <point x="102" y="714" type="line"/>
      <point x="340" y="714" type="line"/>
      <point x="425" y="629" type="line"/>
      <point x="425" y="493" type="line"/>
      <point x="238" y="306" type="line"/>
      <point x="119" y="306" type="line"/>
      <point x="119" y="408" type="line"/>
      <point x="323" y="408" type="line"/>
    </contour>
  </outline>
</glyph>
<glyph name="four" format="1">
  <advance width="442"/>
  <unicode hex="0034"/>
  <outline>
    <contour>
      <point x="425.0" y="0.0" type="line"/>
      <point x="323.0" y="0.0" type="line"/>
      <point x="323.0" y="306.0" type="line"/>
      <point x="17.0" y="306.0" type="line"/>
      <point x="17" y="714" type="line"/>
      <point x="119" y="714" type="line"/>
      <point x="119" y="408" type="line"/>
      <point x="323.0" y="408.0" type="line"/>
      <point x="323" y="714" type="line"/>
      <point x="425" y="714" type="line"/>
    </contour>
  </outline>
</glyph>
<glyph name="seven" format="1">
  <advance width="442.0"/>
  <unicode hex="0037"/>
  <outline>
    <contour>
      <point x="119" y="0" type="line"/>
      <point x="17" y="0" type="line"/>
      <point x="17" y="323" type="line"/>
      <point x="102" y="408" type="line"/>
      <point x="323.0" y="408.0" type="line"/>
      <point x="323.0" y="612.0" type="line"/>
      <point x="17.0" y="612.0" type="line"/>
      <point x="17.0" y="714.0" type="line"/>
      <point x="425.0" y="714.0" type="line"/>
      <point x="425" y="391" type="line"/>
      <point x="340" y="306" type="line"/>
      <point x="119" y="306" type="line"/>
    </contour>
  </outline>
</glyph>
<glyph name="eight" format="1">
  <advance width="442"/>
  <unicode hex="0038"/>
  <outline>
    <contour>
      <point x="94" y="8" type="line" smooth="yes"/>
      <point x="99.0" y="3.0"/>
      <point x="107.0" y="0.0"/>
      <point x="114" y="0" type="curve" smooth="yes"/>
      <point x="328" y="0" type="line" smooth="yes"/>
      <point x="335.0" y="0.0"/>
      <point x="343.0" y="3.0"/>
      <point x="348" y="8" type="curve" smooth="yes"/>
      <point x="417" y="77" type="line" smooth="yes"/>
      <point x="422.0" y="82.0"/>
      <point x="425.0" y="90.0"/>
      <point x="425" y="97" type="curve" smooth="yes"/>
      <point x="425" y="311" type="line" smooth="yes"/>
      <point x="425.0" y="318.0"/>
      <point x="422.0" y="326.0"/>
      <point x="417" y="331" type="curve" smooth="yes"/>
      <point x="352" y="396" type="line" smooth="yes"/>
      <point x="344.0" y="404.0"/>
      <point x="344.0" y="412.0"/>
      <point x="352" y="420" type="curve" smooth="yes"/>
      <point x="417" y="485" type="line" smooth="yes"/>
      <point x="422.0" y="490.0"/>
      <point x="425.0" y="498.0"/>
      <point x="425" y="505" type="curve" smooth="yes"/>
      <point x="425" y="617" type="line" smooth="yes"/>
      <point x="425.0" y="624.0"/>
      <point x="422.0" y="632.0"/>
      <point x="417" y="637" type="curve" smooth="yes"/>
      <point x="348" y="706" type="line" smooth="yes"/>
      <point x="343.0" y="711.0"/>
      <point x="335.0" y="714.0"/>
      <point x="328" y="714" type="curve" smooth="yes"/>
      <point x="114" y="714" type="line" smooth="yes"/>
      <point x="107.0" y="714.0"/>
      <point x="99.0" y="711.0"/>
      <point x="94" y="706" type="curve" smooth="yes"/>
      <point x="25" y="637" type="line" smooth="yes"/>
      <point x="20.0" y="632.0"/>
      <point x="17.0" y="624.0"/>
      <point x="17" y="617" type="curve" smooth="yes"/>
      <point x="17" y="403" type="line" smooth="yes"/>
      <point x="17.0" y="396.0"/>
      <point x="20.0" y="388.0"/>
      <point x="25" y="383" type="curve" smooth="yes"/>
      <point x="90" y="318" type="line" smooth="yes"/>
      <point x="98.0" y="310.0"/>
      <point x="98.0" y="302.0"/>
      <point x="90" y="294" type="curve" smooth="yes"/>
      <point x="25" y="229" type="line" smooth="yes"/>
      <point x="20.0" y="224.0"/>
      <point x="17.0" y="216.0"/>
      <point x="17" y="209" type="curve" smooth="yes"/>
      <point x="17" y="97" type="line" smooth="yes"/>
      <point x="17.0" y="90.0"/>
      <point x="20.0" y="82.0"/>
      <point x="25" y="77" type="curve" smooth="yes"/>
    </contour>
    <contour>
      <point x="323" y="417" type="line" smooth="yes"/>
      <point x="323.0" y="413.0"/>
      <point x="318.0" y="408.0"/>
      <point x="314" y="408" type="curve" smooth="yes"/>
      <point x="128" y="408" type="line" smooth="yes"/>
      <point x="124.0" y="408.0"/>
      <point x="119.0" y="413.0"/>
      <point x="119" y="417" type="curve" smooth="yes"/>
      <point x="119" y="603" type="line" smooth="yes"/>
      <point x="119.0" y="607.0"/>
      <point x="124.0" y="612.0"/>
      <point x="128" y="612" type="curve" smooth="yes"/>
      <point x="314" y="612" type="line" smooth="yes"/>
      <point x="318.0" y="612.0"/>
      <point x="323.0" y="607.0"/>
      <point x="323" y="603" type="curve" smooth="yes"/>
    </contour>
    <contour>
      <point x="314" y="306" type="line" smooth="yes"/>
      <point x="318.0" y="306.0"/>
      <point x="323.0" y="301.0"/>
      <point x="323" y="297" type="curve" smooth="yes"/>
      <point x="323" y="111" type="line" smooth="yes"/>
      <point x="323.0" y="107.0"/>
      <point x="318.0" y="102.0"/>
      <point x="314" y="102" type="curve" smooth="yes"/>
      <point x="128" y="102" type="line" smooth="yes"/>
      <point x="124.0" y="102.0"/>
      <point x="119.0" y="107.0"/>
      <point x="119" y="111" type="curve" smooth="yes"/>
      <point x="119" y="297" type="line" smooth="yes"/>
      <point x="119.0" y="301.0"/>
      <point x="124.0" y="306.0"/>
      <point x="128" y="306" type="curve" smooth="yes"/>
    </contour>
  </outline>
</glyph>
<glyph name="nine" format="1">
  <advance width="442"/>
  <unicode hex="0039"/>
  <outline>
    <contour>
      <point x="348" y="706" type="line" smooth="yes"/>
      <point x="343" y="711"/>
      <point x="335" y="714"/>
      <point x="328" y="714" type="curve" smooth="yes"/>
      <point x="114" y="714" type="line" smooth="yes"/>
      <point x="107" y="714"/>
      <point x="99" y="711"/>
      <point x="94" y="706" type="curve" smooth="yes"/>
      <point x="25" y="637" type="line" smooth="yes"/>
      <point x="20" y="632"/>
      <point x="17" y="624"/>
      <point x="17" y="617" type="curve" smooth="yes"/>
      <point x="17" y="403" type="line" smooth="yes"/>
      <point x="17" y="396"/>
      <point x="20" y="388"/>
      <point x="25" y="383" type="curve" smooth="yes"/>
      <point x="94" y="314" type="line" smooth="yes"/>
      <point x="99" y="309"/>
      <point x="107" y="306"/>
      <point x="114" y="306" type="curve" smooth="yes"/>
      <point x="323" y="306" type="line"/>
      <point x="323" y="102" type="line"/>
      <point x="119" y="102" type="line"/>
      <point x="119" y="204" type="line"/>
      <point x="17" y="204" type="line"/>
      <point x="17" y="97" type="line" smooth="yes"/>
      <point x="17" y="90"/>
      <point x="20" y="82"/>
      <point x="25" y="77" type="curve" smooth="yes"/>
      <point x="94" y="8" type="line" smooth="yes"/>
      <point x="99" y="3"/>
      <point x="107" y="0"/>
      <point x="114" y="0" type="curve" smooth="yes"/>
      <point x="328" y="0" type="line" smooth="yes"/>
      <point x="335" y="0"/>
      <point x="343" y="3"/>
      <point x="348" y="8" type="curve" smooth="yes"/>
      <point x="417" y="77" type="line" smooth="yes"/>
      <point x="422" y="82"/>
      <point x="425" y="90"/>
      <point x="425" y="97" type="curve" smooth="yes"/>
      <point x="425" y="617" type="line" smooth="yes"/>
      <point x="425" y="624"/>
      <point x="422" y="632"/>
      <point x="417" y="637" type="curve" smooth="yes"/>
    </contour>
    <contour>
      <point x="119" y="612" type="line"/>
      <point x="323" y="612" type="line"/>
      <point x="323" y="408" type="line"/>
      <point x="119" y="408" type="line"/>
    </contour>
  </outline>
</glyph>
<glyph name="colon" format="1">
  <advance width="136"/>
  <unicode hex="003A"/>
  <outline>
    <contour>
      <point x="119" y="102" type="line"/>
      <point x="119" y="0" type="line"/>
      <point x="17" y="0" type="line"/>
      <point x="17" y="102" type="line"/>
    </contour>
    <contour>
      <point x="119" y="510" type="line"/>
      <point x="119" y="408" type="line"/>
      <point x="17" y="408" type="line"/>
      <point x="17" y="510" type="line"/>
    </contour>
  </outline>
</glyph>
<glyph name="semicolon" format="1">
  <advance width="136"/>
  <unicode hex="003B"/>
  <outline>
    <contour>
      <point x="119" y="510" type="line"/>
      <point x="119" y="408" type="line"/>
      <point x="17" y="408" type="line"/>
      <point x="17" y="510" type="line"/>
    </contour>
    <contour>
      <point x="119" y="102" type="line"/>
      <point x="119" y="-107" type="line" smooth="yes"/>
      <point x="119.0" y="-114.0"/>
      <point x="116.0" y="-122.0"/>
      <point x="111" y="-127" type="curve" smooth="yes"/>
      <point x="42" y="-196" type="line" smooth="yes"/>
      <point x="37.0" y="-201.0"/>
      <point x="29.0" y="-204.0"/>
      <point x="22" y="-204" type="curve" smooth="yes"/>
      <point x="-85" y="-204" type="line"/>
      <point x="-85" y="-102" type="line"/>
      <point x="17" y="-102" type="line"/>
      <point x="17" y="102" type="line"/>
    </contour>
  </outline>
</glyph>
<glyph name="question" format="1">
  <advance width="442.0"/>
  <unicode hex="003F"/>
  <outline>
    <contour>
      <point x="119.0" y="204.0" type="line"/>
      <point x="17.0" y="204.0" type="line"/>
      <point x="17" y="311" type="line" smooth="yes"/>
      <point x="17.0" y="318.0"/>
      <point x="20.0" y="326.0"/>
      <point x="25" y="331" type="curve" smooth="yes"/>
      <point x="94" y="400" type="line" smooth="yes"/>
      <point x="99.0" y="405.0"/>
      <point x="107.0" y="408.0"/>
      <point x="114" y="408" type="curve" smooth="yes"/>
      <point x="314" y="408" type="line" smooth="yes"/>
      <point x="318.0" y="408.0"/>
      <point x="323.0" y="413.0"/>
      <point x="323" y="417" type="curve" smooth="yes"/>
      <point x="323" y="603" type="line" smooth="yes"/>
      <point x="323.0" y="607.0"/>
      <point x="318.0" y="612.0"/>
      <point x="314" y="612" type="curve" smooth="yes"/>
      <point x="128" y="612" type="line" smooth="yes"/>
      <point x="124.0" y="612.0"/>
      <point x="119.0" y="607.0"/>
      <point x="119" y="603" type="curve" smooth="yes"/>
      <point x="119" y="561" type="line"/>
      <point x="17" y="561" type="line"/>
      <point x="17" y="617" type="line" smooth="yes"/>
      <point x="17.0" y="624.0"/>
      <point x="20.0" y="632.0"/>
      <point x="25" y="637" type="curve" smooth="yes"/>
      <point x="94" y="706" type="line" smooth="yes"/>
      <point x="99.0" y="711.0"/>
      <point x="107.0" y="714.0"/>
      <point x="114" y="714" type="curve" smooth="yes"/>
      <point x="328" y="714" type="line" smooth="yes"/>
      <point x="335.0" y="714.0"/>
      <point x="343.0" y="711.0"/>
      <point x="348" y="706" type="curve" smooth="yes"/>
      <point x="417" y="637" type="line" smooth="yes"/>
      <point x="422.0" y="632.0"/>
      <point x="425.0" y="624.0"/>
      <point x="425" y="617" type="curve" smooth="yes"/>
      <point x="425" y="403" type="line" smooth="yes"/>
      <point x="425.0" y="396.0"/>
      <point x="422.0" y="388.0"/>
      <point x="417" y="383" type="curve" smooth="yes"/>
      <point x="348" y="314" type="line" smooth="yes"/>
      <point x="343.0" y="309.0"/>
      <point x="335.0" y="306.0"/>
      <point x="328" y="306" type="curve" smooth="yes"/>
      <point x="128" y="306" type="line" smooth="yes"/>
      <point x="124.0" y="306.0"/>
      <point x="119.0" y="301.0"/>
      <point x="119" y="297" type="curve" smooth="yes"/>
    </contour>
    <contour>
      <point x="119" y="102" type="line"/>
      <point x="119" y="0" type="line"/>
      <point x="17" y="0" type="line"/>
      <point x="17" y="102" type="line"/>
    </contour>
  </outline>
</glyph>
<glyph name="A" format="1">
  <advance width="442"/>
  <unicode hex="0041"/>
  <outline>
    <contour>
      <point x="17" y="408" type="line"/>
      <point x="17" y="306" type="line"/>
      <point x="425" y="306" type="line"/>
      <point x="425" y="408" type="line"/>
    </contour>
    <contour>
      <point x="119" y="0" type="line"/>
      <point x="119" y="612" type="line"/>
      <point x="323" y="612" type="line"/>
      <point x="323" y="0" type="line"/>
      <point x="425" y="0" type="line"/>
      <point x="425" y="617" type="line" smooth="yes"/>
      <point x="425" y="624"/>
      <point x="422" y="632"/>
      <point x="417" y="637" type="curve" smooth="yes"/>
      <point x="348" y="706" type="line" smooth="yes"/>
      <point x="343" y="711"/>
      <point x="335" y="714"/>
      <point x="328" y="714" type="curve" smooth="yes"/>
      <point x="114" y="714" type="line" smooth="yes"/>
      <point x="107" y="714"/>
      <point x="99" y="711"/>
      <point x="94" y="706" type="curve" smooth="yes"/>
      <point x="25" y="637" type="line" smooth="yes"/>
      <point x="20" y="632"/>
      <point x="17" y="624"/>
      <point x="17" y="617" type="curve" smooth="yes"/>
      <point x="17" y="0" type="line"/>
    </contour>
  </outline>
</glyph>
<glyph name="B" format="1">
  <advance width="442"/>
  <unicode hex="0042"/>
  <outline>
    <contour>
      <point x="328" y="0" type="line" smooth="yes"/>
      <point x="335" y="0"/>
      <point x="343" y="3"/>
      <point x="348" y="8" type="curve" smooth="yes"/>
      <point x="417" y="77" type="line" smooth="yes"/>
      <point x="422" y="82"/>
      <point x="425" y="90"/>
      <point x="425" y="97" type="curve" smooth="yes"/>
      <point x="425" y="311" type="line" smooth="yes"/>
      <point x="425" y="318"/>
      <point x="422" y="326"/>
      <point x="417" y="331" type="curve" smooth="yes"/>
      <point x="340" y="408" type="line"/>
      <point x="417" y="485" type="line" smooth="yes"/>
      <point x="422" y="490"/>
      <point x="425" y="498"/>
      <point x="425" y="505" type="curve" smooth="yes"/>
      <point x="425" y="617" type="line" smooth="yes"/>
      <point x="425" y="624"/>
      <point x="422" y="632"/>
      <point x="417" y="637" type="curve" smooth="yes"/>
      <point x="348" y="706" type="line" smooth="yes"/>
      <point x="343" y="711"/>
      <point x="335" y="714"/>
      <point x="328" y="714" type="curve"/>
      <point x="17" y="714" type="line"/>
      <point x="17" y="0" type="line"/>
    </contour>
    <contour>
      <point x="323" y="408" type="line"/>
      <point x="119" y="408" type="line"/>
      <point x="119" y="612" type="line"/>
      <point x="323" y="612" type="line"/>
    </contour>
    <contour>
      <point x="323" y="306" type="line"/>
      <point x="323" y="102" type="line"/>
      <point x="119" y="102" type="line"/>
      <point x="119" y="306" type="line"/>
    </contour>
  </outline>
</glyph>
<glyph name="D" format="1">
  <advance width="442"/>
  <unicode hex="0044"/>
  <outline>
    <contour>
      <point x="425.0" y="97.0" type="line" smooth="yes"/>
      <point x="425.0" y="90.0"/>
      <point x="422.0" y="82.0"/>
      <point x="417.0" y="77.0" type="curve" smooth="yes"/>
      <point x="348.0" y="8.0" type="line" smooth="yes"/>
      <point x="343.0" y="3.0"/>
      <point x="335.0" y="-8.57252759403e-16"/>
      <point x="328.0" y="0.0" type="curve" smooth="yes"/>
      <point x="17" y="0" type="line"/>
      <point x="17.0" y="714.0" type="line"/>
      <point x="328.0" y="714.0" type="line" smooth="yes"/>
      <point x="335.0" y="714.0"/>
      <point x="343.0" y="711.0"/>
      <point x="348.0" y="706.0" type="curve" smooth="yes"/>
      <point x="417.0" y="637.0" type="line" smooth="yes"/>
      <point x="422.0" y="632.0"/>
      <point x="425.0" y="624.0"/>
      <point x="425.0" y="617.0" type="curve" smooth="yes"/>
    </contour>
    <contour>
      <point x="119" y="111" type="line" smooth="yes"/>
      <point x="119.0" y="107.0"/>
      <point x="124.0" y="102.0"/>
      <point x="128" y="102" type="curve" smooth="yes"/>
      <point x="314" y="102" type="line" smooth="yes"/>
      <point x="318.0" y="102.0"/>
      <point x="323.0" y="107.0"/>
      <point x="323" y="111" type="curve" smooth="yes"/>
      <point x="323" y="603" type="line" smooth="yes"/>
      <point x="323.0" y="607.0"/>
      <point x="318.0" y="612.0"/>
      <point x="314" y="612" type="curve" smooth="yes"/>
      <point x="128" y="612" type="line" smooth="yes"/>
      <point x="124.0" y="612.0"/>
      <point x="119.0" y="607.0"/>
      <point x="119" y="603" type="curve" smooth="yes"/>
    </contour>
  </outline>
</glyph>
<glyph name="E" format="1">
  <advance width="442"/>
  <unicode hex="0045"/>
  <outline>
    <contour>
      <point x="17" y="0" type="line"/>
      <point x="425" y="0" type="line"/>
      <point x="425" y="102" type="line"/>
      <point x="128" y="102" type="line" smooth="yes"/>
      <point x="124.0" y="102.0"/>
      <point x="119.0" y="107.0"/>
      <point x="119" y="111" type="curve" smooth="yes"/>
      <point x="119" y="297" type="line" smooth="yes"/>
      <point x="119.0" y="301.0"/>
      <point x="124.0" y="306.0"/>
      <point x="128" y="306" type="curve" smooth="yes"/>
      <point x="374" y="306" type="line"/>
      <point x="374" y="408" type="line"/>
      <point x="128" y="408" type="line" smooth="yes"/>
      <point x="124.0" y="408.0"/>
      <point x="119.0" y="413.0"/>
      <point x="119" y="417" type="curve" smooth="yes"/>
      <point x="119" y="603" type="line" smooth="yes"/>
      <point x="119.0" y="607.0"/>
      <point x="124.0" y="612.0"/>
      <point x="128" y="612" type="curve" smooth="yes"/>
      <point x="425" y="612" type="line"/>
      <point x="425" y="714" type="line"/>
      <point x="17" y="714" type="line"/>
    </contour>
  </outline>
</glyph>
<glyph name="F" format="1">
  <advance width="442"/>
  <unicode hex="0046"/>
  <outline>
    <contour>
      <point x="119" y="0" type="line"/>
      <point x="17" y="0" type="line"/>
      <point x="17" y="714" type="line"/>
      <point x="119" y="714" type="line"/>
    </contour>
    <contour>
      <point x="17" y="714" type="line"/>
      <point x="425" y="714" type="line"/>
      <point x="425" y="612" type="line"/>
      <point x="17" y="612" type="line"/>
    </contour>
    <contour>
      <point x="17" y="408" type="line"/>
      <point x="374" y="408" type="line"/>
      <point x="374" y="306" type="line"/>
      <point x="17" y="306" type="line"/>
    </contour>
  </outline>
</glyph>
<glyph name="G" format="1">
  <advance width="442.0"/>
  <unicode hex="0047"/>
  <outline>
    <contour>
      <point x="221" y="408" type="line"/>
      <point x="374" y="408" type="line"/>
      <point x="374" y="306" type="line"/>
      <point x="221" y="306" type="line"/>
    </contour>
    <contour>
      <point x="425" y="0" type="line"/>
      <point x="323" y="0" type="line"/>
      <point x="323" y="85" type="line"/>
      <point x="246" y="8" type="line" smooth="yes"/>
      <point x="241" y="3"/>
      <point x="233" y="0"/>
      <point x="226" y="0" type="curve" smooth="yes"/>
      <point x="114" y="0" type="line" smooth="yes"/>
      <point x="107" y="0"/>
      <point x="99" y="3"/>
      <point x="94" y="8" type="curve" smooth="yes"/>
      <point x="25" y="77" type="line" smooth="yes"/>
      <point x="20" y="82"/>
      <point x="17" y="90"/>
      <point x="17" y="97" type="curve" smooth="yes"/>
      <point x="17" y="408" type="line"/>
      <point x="119" y="408" type="line"/>
      <point x="119" y="102" type="line"/>
      <point x="323" y="102" type="line"/>
      <point x="323" y="408" type="line"/>
      <point x="425" y="408" type="line"/>
    </contour>
    <contour>
      <point x="17.0" y="185.0" type="line"/>
      <point x="17.0" y="617.0" type="line" smooth="yes"/>
      <point x="17.0" y="624.0"/>
      <point x="20.0" y="632.0"/>
      <point x="25.0" y="637.0" type="curve" smooth="yes"/>
      <point x="94.0" y="706.0" type="line" smooth="yes"/>
      <point x="99.0" y="711.0"/>
      <point x="107.0" y="714.0"/>
      <point x="114.0" y="714.0" type="curve" smooth="yes"/>
      <point x="328.0" y="714.0" type="line" smooth="yes"/>
      <point x="335.0" y="714.0"/>
      <point x="343.0" y="711.0"/>
      <point x="348.0" y="706.0" type="curve" smooth="yes"/>
      <point x="417.0" y="637.0" type="line" smooth="yes"/>
      <point x="422.0" y="632.0"/>
      <point x="425.0" y="624.0"/>
      <point x="425.0" y="617.0" type="curve" smooth="yes"/>
      <point x="425.0" y="510.0" type="line"/>
      <point x="323.0" y="510.0" type="line"/>
      <point x="323.0" y="612.0" type="line"/>
      <point x="119.0" y="612.0" type="line"/>
      <point x="119.0" y="185.0" type="line"/>
    </contour>
  </outline>
</glyph>
<glyph name="H" format="1">
  <advance width="442"/>
  <unicode hex="0048"/>
  <outline>
    <contour>
      <point x="17" y="0" type="line"/>
      <point x="119" y="0" type="line"/>
      <point x="119" y="297" type="line" smooth="yes"/>
      <point x="119.0" y="301.0"/>
      <point x="124.0" y="306.0"/>
      <point x="128" y="306" type="curve" smooth="yes"/>
      <point x="314" y="306" type="line" smooth="yes"/>
      <point x="318.0" y="306.0"/>
      <point x="323.0" y="301.0"/>
      <point x="323" y="297" type="curve" smooth="yes"/>
      <point x="323" y="0" type="line"/>
      <point x="425" y="0" type="line"/>
      <point x="425" y="714" type="line"/>
      <point x="323" y="714" type="line"/>
      <point x="323" y="417" type="line" smooth="yes"/>
      <point x="323.0" y="413.0"/>
      <point x="318.0" y="408.0"/>
      <point x="314" y="408" type="curve" smooth="yes"/>
      <point x="128" y="408" type="line" smooth="yes"/>
      <point x="124.0" y="408.0"/>
      <point x="119.0" y="413.0"/>
      <point x="119" y="417" type="curve" smooth="yes"/>
      <point x="119" y="714" type="line"/>
      <point x="17" y="714" type="line"/>
    </contour>
  </outline>
</glyph>
<glyph name="I" format="1">
  <advance width="340"/>
  <unicode hex="0049"/>
  <outline>
    <contour>
      <point x="323" y="0" type="line"/>
      <point x="323" y="102" type="line"/>
      <point x="230" y="102" type="line" smooth="yes"/>
      <point x="226.0" y="102.0"/>
      <point x="221.0" y="107.0"/>
      <point x="221" y="111" type="curve" smooth="yes"/>
      <point x="221" y="603" type="line" smooth="yes"/>
      <point x="221.0" y="607.0"/>
      <point x="226.0" y="612.0"/>
      <point x="230" y="612" type="curve" smooth="yes"/>
      <point x="323" y="612" type="line"/>
      <point x="323" y="714" type="line"/>
      <point x="17" y="714" type="line"/>
      <point x="17" y="612" type="line"/>
      <point x="110" y="612" type="line" smooth="yes"/>
      <point x="114.0" y="612.0"/>
      <point x="119.0" y="607.0"/>
      <point x="119" y="603" type="curve" smooth="yes"/>
      <point x="119" y="111" type="line" smooth="yes"/>
      <point x="119.0" y="107.0"/>
      <point x="114.0" y="102.0"/>
      <point x="110" y="102" type="curve" smooth="yes"/>
      <point x="17" y="102" type="line"/>
      <point x="17" y="0" type="line"/>
    </contour>
  </outline>
</glyph>
<glyph name="K" format="1">
  <advance width="442"/>
  <unicode hex="004B"/>
  <outline>
    <contour>
      <point x="119" y="0" type="line"/>
      <point x="119" y="297" type="line" smooth="yes"/>
      <point x="119.0" y="301.0"/>
      <point x="124.0" y="306.0"/>
      <point x="128" y="306" type="curve" smooth="yes"/>
      <point x="314" y="306" type="line" smooth="yes"/>
      <point x="318.0" y="306.0"/>
      <point x="323.0" y="301.0"/>
      <point x="323" y="297" type="curve" smooth="yes"/>
      <point x="323" y="0" type="line"/>
      <point x="425" y="0" type="line"/>
      <point x="425" y="311" type="line" smooth="yes"/>
      <point x="425.0" y="318.0"/>
      <point x="422.0" y="326.0"/>
      <point x="417" y="331" type="curve" smooth="yes"/>
      <point x="352" y="396" type="line" smooth="yes"/>
      <point x="344.0" y="404.0"/>
      <point x="344.0" y="412.0"/>
      <point x="352" y="420" type="curve" smooth="yes"/>
      <point x="417" y="485" type="line" smooth="yes"/>
      <point x="422.0" y="490.0"/>
      <point x="425.0" y="498.0"/>
      <point x="425" y="505" type="curve" smooth="yes"/>
      <point x="425" y="714" type="line"/>
      <point x="323" y="714" type="line"/>
      <point x="323" y="417" type="line" smooth="yes"/>
      <point x="323.0" y="413.0"/>
      <point x="318.0" y="408.0"/>
      <point x="314" y="408" type="curve" smooth="yes"/>
      <point x="128" y="408" type="line" smooth="yes"/>
      <point x="124.0" y="408.0"/>
      <point x="119.0" y="413.0"/>
      <point x="119" y="417" type="curve" smooth="yes"/>
      <point x="119" y="714" type="line"/>
      <point x="17" y="714" type="line"/>
      <point x="17" y="0" type="line"/>
    </contour>
  </outline>
</glyph>
<glyph name="L" format="1">
  <advance width="442"/>
  <unicode hex="004C"/>
  <outline>
    <contour>
      <point x="119" y="0" type="line"/>
      <point x="17" y="0" type="line"/>
      <point x="17" y="714" type="line"/>
      <point x="119" y="714" type="line"/>
    </contour>
    <contour>
      <point x="17" y="102" type="line"/>
      <point x="425" y="102" type="line"/>
      <point x="425" y="0" type="line"/>
      <point x="17" y="0" type="line"/>
    </contour>
  </outline>
</glyph>
<glyph name="M" format="1">
  <advance width="748"/>
  <unicode hex="004D"/>
  <outline>
    <contour>
      <point x="119" y="0" type="line"/>
      <point x="119" y="603" type="line" smooth="yes"/>
      <point x="119.0" y="607.0"/>
      <point x="124.0" y="612.0"/>
      <point x="128" y="612" type="curve" smooth="yes"/>
      <point x="314" y="612" type="line" smooth="yes"/>
      <point x="318.0" y="612.0"/>
      <point x="323.0" y="607.0"/>
      <point x="323" y="603" type="curve" smooth="yes"/>
      <point x="323" y="0" type="line"/>
      <point x="425" y="0" type="line"/>
      <point x="425" y="603" type="line" smooth="yes"/>
      <point x="425.0" y="607.0"/>
      <point x="430.0" y="612.0"/>
      <point x="434" y="612" type="curve" smooth="yes"/>
      <point x="620" y="612" type="line" smooth="yes"/>
      <point x="624.0" y="612.0"/>
      <point x="629.0" y="607.0"/>
      <point x="629" y="603" type="curve" smooth="yes"/>
      <point x="629" y="0" type="line"/>
      <point x="731" y="0" type="line"/>
      <point x="731" y="617" type="line" smooth="yes"/>
      <point x="731.0" y="624.0"/>
      <point x="728.0" y="632.0"/>
      <point x="723" y="637" type="curve" smooth="yes"/>
      <point x="654" y="706" type="line" smooth="yes"/>
      <point x="649.0" y="711.0"/>
      <point x="641.0" y="714.0"/>
      <point x="634" y="714" type="curve" smooth="yes"/>
      <point x="17" y="714" type="line"/>
      <point x="17" y="0" type="line"/>
    </contour>
  </outline>
</glyph>
<glyph name="N" format="1">
  <advance width="442"/>
  <unicode hex="004E"/>
  <outline>
    <contour>
      <point x="60" y="612" type="line"/>
      <point x="60" y="714" type="line"/>
      <point x="328" y="714" type="line" smooth="yes"/>
      <point x="335" y="714"/>
      <point x="343" y="711"/>
      <point x="348" y="706" type="curve" smooth="yes"/>
      <point x="417" y="637" type="line" smooth="yes"/>
      <point x="422" y="632"/>
      <point x="425" y="624"/>
      <point x="425" y="617" type="curve" smooth="yes"/>
      <point x="425" y="0" type="line"/>
      <point x="323" y="0" type="line"/>
      <point x="323" y="612" type="line"/>
    </contour>
    <contour>
      <point x="119" y="0" type="line"/>
      <point x="17" y="0" type="line"/>
      <point x="17" y="714" type="line"/>
      <point x="119" y="714" type="line"/>
    </contour>
  </outline>
</glyph>
<glyph name="O" format="1">
  <advance width="442"/>
  <unicode hex="004F"/>
  <outline>
    <contour>
      <point x="425" y="97" type="line" smooth="yes"/>
      <point x="425.0" y="90.0"/>
      <point x="422.0" y="82.0"/>
      <point x="417" y="77" type="curve" smooth="yes"/>
      <point x="348" y="8" type="line" smooth="yes"/>
      <point x="343.0" y="3.0"/>
      <point x="335.0" y="-8.57252759403e-16"/>
      <point x="328" y="0" type="curve" smooth="yes"/>
      <point x="114" y="0" type="line" smooth="yes"/>
      <point x="107.0" y="8.57252759403e-16"/>
      <point x="99.0" y="3.0"/>
      <point x="94" y="8" type="curve" smooth="yes"/>
      <point x="25" y="77" type="line" smooth="yes"/>
      <point x="20.0" y="82.0"/>
      <point x="17.0" y="90.0"/>
      <point x="17" y="97" type="curve" smooth="yes"/>
      <point x="17" y="617" type="line" smooth="yes"/>
      <point x="17.0" y="624.0"/>
      <point x="20.0" y="632.0"/>
      <point x="25" y="637" type="curve" smooth="yes"/>
      <point x="94" y="706" type="line" smooth="yes"/>
      <point x="99.0" y="711.0"/>
      <point x="107.0" y="714.0"/>
      <point x="114" y="714" type="curve" smooth="yes"/>
      <point x="328" y="714" type="line" smooth="yes"/>
      <point x="335.0" y="714.0"/>
      <point x="343.0" y="711.0"/>
      <point x="348" y="706" type="curve" smooth="yes"/>
      <point x="417" y="637" type="line" smooth="yes"/>
      <point x="422.0" y="632.0"/>
      <point x="425.0" y="624.0"/>
      <point x="425" y="617" type="curve" smooth="yes"/>
    </contour>
    <contour>
      <point x="119" y="111" type="line" smooth="yes"/>
      <point x="119.0" y="107.0"/>
      <point x="124.0" y="102.0"/>
      <point x="128" y="102" type="curve" smooth="yes"/>
      <point x="314" y="102" type="line" smooth="yes"/>
      <point x="318.0" y="102.0"/>
      <point x="323.0" y="107.0"/>
      <point x="323" y="111" type="curve" smooth="yes"/>
      <point x="323" y="603" type="line" smooth="yes"/>
      <point x="323.0" y="607.0"/>
      <point x="318.0" y="612.0"/>
      <point x="314" y="612" type="curve" smooth="yes"/>
      <point x="128" y="612" type="line" smooth="yes"/>
      <point x="124.0" y="612.0"/>
      <point x="119.0" y="607.0"/>
      <point x="119" y="603" type="curve" smooth="yes"/>
    </contour>
  </outline>
</glyph>
<glyph name="P" format="1">
  <advance width="442.0"/>
  <unicode hex="0050"/>
  <outline>
    <contour>
      <point x="17" y="0" type="line"/>
      <point x="119" y="0" type="line"/>
      <point x="119" y="297" type="line" smooth="yes"/>
      <point x="119.0" y="301.0"/>
      <point x="124.0" y="306.0"/>
      <point x="128" y="306" type="curve" smooth="yes"/>
      <point x="328" y="306" type="line" smooth="yes"/>
      <point x="335.0" y="306.0"/>
      <point x="343.0" y="309.0"/>
      <point x="348" y="314" type="curve" smooth="yes"/>
      <point x="417" y="383" type="line" smooth="yes"/>
      <point x="422.0" y="388.0"/>
      <point x="425.0" y="396.0"/>
      <point x="425" y="403" type="curve" smooth="yes"/>
      <point x="425" y="617" type="line" smooth="yes"/>
      <point x="425.0" y="624.0"/>
      <point x="422.0" y="632.0"/>
      <point x="417" y="637" type="curve" smooth="yes"/>
      <point x="348" y="706" type="line" smooth="yes"/>
      <point x="343.0" y="711.0"/>
      <point x="335.0" y="714.0"/>
      <point x="328" y="714" type="curve" smooth="yes"/>
      <point x="17" y="714" type="line"/>
    </contour>
    <contour>
      <point x="314" y="612" type="line" smooth="yes"/>
      <point x="318.0" y="612.0"/>
      <point x="323.0" y="607.0"/>
      <point x="323" y="603" type="curve" smooth="yes"/>
      <point x="323" y="417" type="line" smooth="yes"/>
      <point x="323.0" y="413.0"/>
      <point x="318.0" y="408.0"/>
      <point x="314" y="408" type="curve" smooth="yes"/>
      <point x="128" y="408" type="line" smooth="yes"/>
      <point x="124.0" y="408.0"/>
      <point x="119.0" y="413.0"/>
      <point x="119" y="417" type="curve" smooth="yes"/>
      <point x="119" y="603" type="line" smooth="yes"/>
      <point x="119.0" y="607.0"/>
      <point x="124.0" y="612.0"/>
      <point x="128" y="612" type="curve" smooth="yes"/>
    </contour>
  </outline>
</glyph>
<glyph name="Q" format="1">
  <advance width="442"/>
  <unicode hex="0051"/>
  <outline>
    <contour>
      <point x="425" y="97" type="line" smooth="yes"/>
      <point x="425" y="90"/>
      <point x="422" y="82"/>
      <point x="417" y="77" type="curve" smooth="yes"/>
      <point x="348" y="8" type="line" smooth="yes"/>
      <point x="343" y="3"/>
      <point x="335" y="0"/>
      <point x="328" y="0" type="curve" smooth="yes"/>
      <point x="114" y="0" type="line" smooth="yes"/>
      <point x="107" y="0"/>
      <point x="99" y="3"/>
      <point x="94" y="8" type="curve" smooth="yes"/>
      <point x="25" y="77" type="line" smooth="yes"/>
      <point x="20" y="82"/>
      <point x="17" y="90"/>
      <point x="17" y="97" type="curve" smooth="yes"/>
      <point x="17" y="617" type="line" smooth="yes"/>
      <point x="17" y="624"/>
      <point x="20" y="632"/>
      <point x="25" y="637" type="curve" smooth="yes"/>
      <point x="94" y="706" type="line" smooth="yes"/>
      <point x="99" y="711"/>
      <point x="107" y="714"/>
      <point x="114" y="714" type="curve" smooth="yes"/>
      <point x="328" y="714" type="line" smooth="yes"/>
      <point x="335" y="714"/>
      <point x="343" y="711"/>
      <point x="348" y="706" type="curve" smooth="yes"/>
      <point x="417" y="637" type="line" smooth="yes"/>
      <point x="422" y="632"/>
      <point x="425" y="624"/>
      <point x="425" y="617" type="curve" smooth="yes"/>
    </contour>
    <contour>
      <point x="119" y="102" type="line"/>
      <point x="323" y="102" type="line"/>
      <point x="323" y="612" type="line"/>
      <point x="119" y="612" type="line"/>
    </contour>
    <contour>
      <point x="170" y="102" type="line"/>
      <point x="272" y="102" type="line"/>
      <point x="272" y="-102" type="line"/>
      <point x="374" y="-102" type="line"/>
      <point x="374" y="-204" type="line"/>
      <point x="267" y="-204" type="line" smooth="yes"/>
      <point x="260" y="-204"/>
      <point x="252" y="-201"/>
      <point x="247" y="-196" type="curve" smooth="yes"/>
      <point x="178" y="-127" type="line" smooth="yes"/>
      <point x="173" y="-122"/>
      <point x="170" y="-114"/>
      <point x="170" y="-107" type="curve" smooth="yes"/>
    </contour>
  </outline>
</glyph>
<glyph name="R" format="1">
  <advance width="442"/>
  <unicode hex="0052"/>
  <outline>
    <contour>
      <point x="323" y="417" type="line" smooth="yes"/>
      <point x="323.0" y="413.0"/>
      <point x="318.0" y="408.0"/>
      <point x="314" y="408" type="curve" smooth="yes"/>
      <point x="128" y="408" type="line" smooth="yes"/>
      <point x="124.0" y="408.0"/>
      <point x="119.0" y="413.0"/>
      <point x="119" y="417" type="curve" smooth="yes"/>
      <point x="119" y="603" type="line" smooth="yes"/>
      <point x="119.0" y="607.0"/>
      <point x="124.0" y="612.0"/>
      <point x="128" y="612" type="curve" smooth="yes"/>
      <point x="314" y="612" type="line" smooth="yes"/>
      <point x="318.0" y="612.0"/>
      <point x="323.0" y="607.0"/>
      <point x="323" y="603" type="curve" smooth="yes"/>
    </contour>
    <contour>
      <point x="425" y="0" type="line"/>
      <point x="425.0" y="311.0" type="line" smooth="yes"/>
      <point x="425.0" y="318.0"/>
      <point x="422.0" y="326.0"/>
      <point x="417.0" y="331.0" type="curve" smooth="yes"/>
      <point x="352" y="396" type="line" smooth="yes"/>
      <point x="344.0" y="404.0"/>
      <point x="344.0" y="412.0"/>
      <point x="352" y="420" type="curve" smooth="yes"/>
      <point x="417.0" y="485.0" type="line" smooth="yes"/>
      <point x="422.0" y="490.0"/>
      <point x="425.0" y="498.0"/>
      <point x="425.0" y="505.0" type="curve" smooth="yes"/>
      <point x="425.0" y="617.0" type="line" smooth="yes"/>
      <point x="425.0" y="624.0"/>
      <point x="422.0" y="632.0"/>
      <point x="417.0" y="637.0" type="curve" smooth="yes"/>
      <point x="348.0" y="706.0" type="line" smooth="yes"/>
      <point x="343.0" y="711.0"/>
      <point x="335.0" y="714.0"/>
      <point x="328.0" y="714.0" type="curve" smooth="yes"/>
      <point x="17.0" y="714.0" type="line"/>
      <point x="17.0" y="0.0" type="line"/>
      <point x="119" y="0" type="line"/>
      <point x="119" y="297" type="line" smooth="yes"/>
      <point x="119.0" y="301.0"/>
      <point x="124.0" y="306.0"/>
      <point x="128" y="306" type="curve" smooth="yes"/>
      <point x="314" y="306" type="line" smooth="yes"/>
      <point x="318.0" y="306.0"/>
      <point x="323.0" y="301.0"/>
      <point x="323" y="297" type="curve" smooth="yes"/>
      <point x="323" y="0" type="line"/>
    </contour>
  </outline>
</glyph>
<glyph name="T" format="1">
  <advance width="442"/>
  <unicode hex="0054"/>
  <outline>
    <contour>
      <point x="170" y="714" type="line"/>
      <point x="272" y="714" type="line"/>
      <point x="272" y="0" type="line"/>
      <point x="170" y="0" type="line"/>
    </contour>
    <contour>
      <point x="425" y="612" type="line"/>
      <point x="17" y="612" type="line"/>
      <point x="17" y="714" type="line"/>
      <point x="425" y="714" type="line"/>
    </contour>
  </outline>
</glyph>
<glyph name="U" format="1">
  <advance width="442"/>
  <unicode hex="0055"/>
  <outline>
    <contour>
      <point x="425" y="714" type="line"/>
      <point x="425.0" y="97.0" type="line" smooth="yes"/>
      <point x="425" y="90"/>
      <point x="422.0" y="82.0"/>
      <point x="417.0" y="77.0" type="curve" smooth="yes"/>
      <point x="348.0" y="8.0" type="line" smooth="yes"/>
      <point x="343.0" y="3.0"/>
      <point x="335.0" y="0.0"/>
      <point x="328.0" y="0.0" type="curve" smooth="yes"/>
      <point x="114.0" y="0.0" type="line" smooth="yes"/>
      <point x="107.0" y="0.0"/>
      <point x="99.0" y="3.0"/>
      <point x="94.0" y="8.0" type="curve" smooth="yes"/>
      <point x="25.0" y="77.0" type="line" smooth="yes"/>
      <point x="20.0" y="82.0"/>
      <point x="17" y="90"/>
      <point x="17.0" y="97.0" type="curve" smooth="yes"/>
      <point x="17" y="714" type="line"/>
      <point x="119" y="714" type="line"/>
      <point x="119.0" y="102.0" type="line"/>
      <point x="323.0" y="102.0" type="line"/>
      <point x="323" y="714" type="line"/>
    </contour>
  </outline>
</glyph>
<glyph name="V" format="1">
  <advance width="442"/>
  <unicode hex="0056"/>
  <outline>
    <contour>
      <point x="114" y="0" type="line" smooth="yes"/>
      <point x="107" y="0"/>
      <point x="99" y="3"/>
      <point x="94" y="8" type="curve" smooth="yes"/>
      <point x="25" y="77" type="line" smooth="yes"/>
      <point x="20" y="82"/>
      <point x="17" y="90"/>
      <point x="17" y="97" type="curve" smooth="yes"/>
      <point x="17" y="714" type="line"/>
      <point x="119" y="714" type="line"/>
      <point x="119" y="102" type="line"/>
      <point x="323" y="102" type="line"/>
      <point x="323" y="714" type="line"/>
      <point x="425" y="714" type="line"/>
      <point x="425" y="199" type="line" smooth="yes"/>
      <point x="425" y="192"/>
      <point x="422" y="184"/>
      <point x="417" y="179" type="curve" smooth="yes"/>
      <point x="246" y="8" type="line" smooth="yes"/>
      <point x="241" y="3"/>
      <point x="233" y="0"/>
      <point x="226" y="0" type="curve" smooth="yes"/>
    </contour>
  </outline>
</glyph>
<glyph name="W" format="1">
  <advance width="748"/>
  <unicode hex="0057"/>
  <outline>
    <contour>
      <point x="226" y="0" type="line" smooth="yes"/>
      <point x="233.0" y="0.0"/>
      <point x="241.0" y="3.0"/>
      <point x="246" y="8" type="curve" smooth="yes"/>
      <point x="311" y="73" type="line" smooth="yes"/>
      <point x="319.0" y="81.0"/>
      <point x="327.0" y="81.0"/>
      <point x="335" y="73" type="curve" smooth="yes"/>
      <point x="400" y="8" type="line" smooth="yes"/>
      <point x="405.0" y="3.0"/>
      <point x="413.0" y="0.0"/>
      <point x="420" y="0" type="curve" smooth="yes"/>
      <point x="532" y="0" type="line" smooth="yes"/>
      <point x="539.0" y="0.0"/>
      <point x="547.0" y="3.0"/>
      <point x="552" y="8" type="curve" smooth="yes"/>
      <point x="723" y="179" type="line" smooth="yes"/>
      <point x="728.0" y="184.0"/>
      <point x="731.0" y="192.0"/>
      <point x="731" y="199" type="curve" smooth="yes"/>
      <point x="731" y="714" type="line"/>
      <point x="629" y="714" type="line"/>
      <point x="629" y="111" type="line" smooth="yes"/>
      <point x="629.0" y="107.0"/>
      <point x="624.0" y="102.0"/>
      <point x="620" y="102" type="curve" smooth="yes"/>
      <point x="434" y="102" type="line" smooth="yes"/>
      <point x="430.0" y="102.0"/>
      <point x="425.0" y="107.0"/>
      <point x="425" y="111" type="curve" smooth="yes"/>
      <point x="425" y="714" type="line"/>
      <point x="323" y="714" type="line"/>
      <point x="323" y="111" type="line" smooth="yes"/>
      <point x="323.0" y="107.0"/>
      <point x="318.0" y="102.0"/>
      <point x="314" y="102" type="curve" smooth="yes"/>
      <point x="128" y="102" type="line" smooth="yes"/>
      <point x="124.0" y="102.0"/>
      <point x="119.0" y="107.0"/>
      <point x="119" y="111" type="curve" smooth="yes"/>
      <point x="119" y="714" type="line"/>
      <point x="17" y="714" type="line"/>
      <point x="17" y="97" type="line" smooth="yes"/>
      <point x="17.0" y="90.0"/>
      <point x="20.0" y="82.0"/>
      <point x="25" y="77" type="curve" smooth="yes"/>
      <point x="94" y="8" type="line" smooth="yes"/>
      <point x="99.0" y="3.0"/>
      <point x="107.0" y="0.0"/>
      <point x="114" y="0" type="curve" smooth="yes"/>
    </contour>
  </outline>
</glyph>
<glyph name="X" format="1">
  <advance width="442"/>
  <unicode hex="0058"/>
  <outline>
    <contour>
      <point x="17" y="0" type="line"/>
      <point x="119" y="0" type="line"/>
      <point x="119" y="306" type="line"/>
      <point x="323" y="306" type="line"/>
      <point x="323" y="0" type="line"/>
      <point x="425" y="0" type="line"/>
      <point x="425" y="311" type="line" smooth="yes"/>
      <point x="425" y="318"/>
      <point x="422" y="326"/>
      <point x="417" y="331" type="curve" smooth="yes"/>
      <point x="340" y="408" type="line"/>
      <point x="417" y="485" type="line" smooth="yes"/>
      <point x="422" y="490"/>
      <point x="425" y="498"/>
      <point x="425" y="505" type="curve" smooth="yes"/>
      <point x="425" y="714" type="line"/>
      <point x="323" y="714" type="line"/>
      <point x="323" y="408" type="line"/>
      <point x="119" y="408" type="line"/>
      <point x="119" y="714" type="line"/>
      <point x="17" y="714" type="line"/>
      <point x="17" y="403" type="line" smooth="yes"/>
      <point x="17" y="396"/>
      <point x="20" y="388"/>
      <point x="25" y="383" type="curve" smooth="yes"/>
      <point x="102" y="306" type="line"/>
      <point x="25" y="229" type="line" smooth="yes"/>
      <point x="20" y="224"/>
      <point x="17" y="216"/>
      <point x="17" y="209" type="curve" smooth="yes"/>
    </contour>
  </outline>
</glyph>
<glyph name="Y" format="1">
  <advance width="442"/>
  <unicode hex="0059"/>
  <outline>
    <contour>
      <point x="114" y="306" type="line" smooth="yes"/>
      <point x="107" y="306"/>
      <point x="99" y="309"/>
      <point x="94" y="314" type="curve" smooth="yes"/>
      <point x="25" y="383" type="line" smooth="yes"/>
      <point x="20" y="388"/>
      <point x="17" y="396"/>
      <point x="17" y="403" type="curve" smooth="yes"/>
      <point x="17" y="714" type="line"/>
      <point x="119" y="714" type="line"/>
      <point x="119" y="408" type="line"/>
      <point x="323" y="408" type="line"/>
      <point x="323" y="714" type="line"/>
      <point x="425" y="714" type="line"/>
      <point x="425" y="505" type="line" smooth="yes"/>
      <point x="425" y="498"/>
      <point x="422" y="490"/>
      <point x="417" y="485" type="curve" smooth="yes"/>
      <point x="246" y="314" type="line" smooth="yes"/>
      <point x="241" y="309"/>
      <point x="233" y="306"/>
      <point x="226" y="306" type="curve" smooth="yes"/>
    </contour>
    <contour>
      <point x="170" y="357" type="line"/>
      <point x="272" y="357" type="line"/>
      <point x="272" y="0" type="line"/>
      <point x="170" y="0" type="line"/>
    </contour>
  </outline>
</glyph>
<glyph name="Z" format="1">
  <advance width="442"/>
  <unicode hex="005A"/>
  <outline>
    <contour>
      <point x="425" y="0" type="line"/>
      <point x="17" y="0" type="line"/>
      <point x="17" y="311" type="line" smooth="yes"/>
      <point x="17.0" y="318.0"/>
      <point x="20.0" y="326.0"/>
      <point x="25" y="331" type="curve" smooth="yes"/>
      <point x="94" y="400" type="line" smooth="yes"/>
      <point x="99.0" y="405.0"/>
      <point x="107.0" y="408.0"/>
      <point x="114" y="408" type="curve" smooth="yes"/>
      <point x="314" y="408" type="line" smooth="yes"/>
      <point x="318.0" y="408.0"/>
      <point x="323.0" y="413.0"/>
      <point x="323" y="417" type="curve" smooth="yes"/>
      <point x="323" y="603" type="line" smooth="yes"/>
      <point x="323.0" y="607.0"/>
      <point x="318.0" y="612.0"/>
      <point x="314" y="612" type="curve" smooth="yes"/>
      <point x="17" y="612" type="line"/>
      <point x="17" y="714" type="line"/>
      <point x="425" y="714" type="line"/>
      <point x="425" y="403" type="line" smooth="yes"/>
      <point x="425.0" y="396.0"/>
      <point x="422.0" y="388.0"/>
      <point x="417" y="383" type="curve" smooth="yes"/>
      <point x="348" y="314" type="line" smooth="yes"/>
      <point x="343.0" y="309.0"/>
      <point x="335.0" y="306.0"/>
      <point x="328" y="306" type="curve" smooth="yes"/>
      <point x="128" y="306" type="line" smooth="yes"/>
      <point x="124.0" y="306.0"/>
      <point x="119.0" y="301.0"/>
      <point x="119" y="297" type="curve" smooth="yes"/>
      <point x="119" y="111" type="line" smooth="yes"/>
      <point x="119.0" y="107.0"/>
      <point x="124.0" y="102.0"/>
      <point x="128" y="102" type="curve" smooth="yes"/>
      <point x="425" y="102" type="line"/>
    </contour>
  </outline>
</glyph>
<glyph name="underscore" format="1">
  <advance width="442"/>
  <unicode hex="005F"/>
  <outline>
    <contour>
      <point x="17" y="0" type="line"/>
      <point x="425" y="0" type="line"/>
      <point x="425" y="-102" type="line"/>
      <point x="17" y="-102" type="line"/>
    </contour>
  </outline>
</glyph>
<glyph name="a" format="1">
  <advance width="442"/>
  <unicode hex="0061"/>
  <outline>
    <contour>
      <point x="250" y="12" type="line" smooth="yes"/>
      <point x="243" y="5"/>
      <point x="231" y="0"/>
      <point x="221" y="0" type="curve" smooth="yes"/>
      <point x="130" y="0" type="line" smooth="yes"/>
      <point x="120" y="0"/>
      <point x="108" y="5"/>
      <point x="101" y="12" type="curve" smooth="yes"/>
      <point x="29" y="84" type="line" smooth="yes"/>
      <point x="22" y="91"/>
      <point x="17" y="103"/>
      <point x="17" y="113" type="curve" smooth="yes"/>
      <point x="17" y="193" type="line" smooth="yes"/>
      <point x="17" y="203"/>
      <point x="22" y="215"/>
      <point x="29" y="222" type="curve" smooth="yes"/>
      <point x="101" y="294" type="line" smooth="yes"/>
      <point x="108" y="301"/>
      <point x="120" y="306"/>
      <point x="130" y="306" type="curve" smooth="yes"/>
      <point x="358" y="306" type="line"/>
      <point x="358" y="204" type="line"/>
      <point x="119" y="204" type="line"/>
      <point x="119" y="102" type="line"/>
      <point x="340" y="102" type="line"/>
    </contour>
    <contour>
      <point x="17.0" y="357.0" type="line"/>
      <point x="17" y="397" type="line" smooth="yes"/>
      <point x="17" y="407"/>
      <point x="22" y="419"/>
      <point x="29" y="426" type="curve" smooth="yes"/>
      <point x="101" y="498" type="line" smooth="yes"/>
      <point x="108" y="505"/>
      <point x="120" y="510"/>
      <point x="130" y="510" type="curve" smooth="yes"/>
      <point x="312" y="510" type="line" smooth="yes"/>
      <point x="322" y="510"/>
      <point x="334" y="505"/>
      <point x="341" y="498" type="curve" smooth="yes"/>
      <point x="413" y="426" type="line" smooth="yes"/>
      <point x="420" y="419"/>
      <point x="425" y="407"/>
      <point x="425" y="397" type="curve" smooth="yes"/>
      <point x="425.0" y="0.0" type="line"/>
      <point x="323.0" y="0.0" type="line"/>
      <point x="323.0" y="408.0" type="line"/>
      <point x="119.0" y="408.0" type="line"/>
      <point x="119.0" y="357.0" type="line"/>
    </contour>
  </outline>
</glyph>
<glyph name="b" format="1">
  <advance width="442"/>
  <unicode hex="0062"/>
  <outline>
    <contour>
      <point x="314" y="408" type="line" smooth="yes"/>
      <point x="318.0" y="408.0"/>
      <point x="323.0" y="403.0"/>
      <point x="323" y="399" type="curve" smooth="yes"/>
      <point x="323" y="111" type="line" smooth="yes"/>
      <point x="323.0" y="107.0"/>
      <point x="318.0" y="102.0"/>
      <point x="314" y="102" type="curve" smooth="yes"/>
      <point x="128" y="102" type="line" smooth="yes"/>
      <point x="124.0" y="102.0"/>
      <point x="119.0" y="107.0"/>
      <point x="119" y="111" type="curve" smooth="yes"/>
      <point x="119" y="399" type="line" smooth="yes"/>
      <point x="119.0" y="403.0"/>
      <point x="124.0" y="408.0"/>
      <point x="128" y="408" type="curve" smooth="yes"/>
    </contour>
    <contour>
      <point x="119" y="0" type="line"/>
      <point x="119" y="76" type="line" smooth="yes"/>
      <point x="119.0" y="81.0"/>
      <point x="122.0" y="82.0"/>
      <point x="125" y="79" type="curve" smooth="yes"/>
      <point x="192" y="12" type="line" smooth="yes"/>
      <point x="199.0" y="5.0"/>
      <point x="211.0" y="0.0"/>
      <point x="221" y="0" type="curve" smooth="yes"/>
      <point x="312" y="0" type="line" smooth="yes"/>
      <point x="322.0" y="0.0"/>
      <point x="334.0" y="5.0"/>
      <point x="341" y="12" type="curve" smooth="yes"/>
      <point x="413" y="84" type="line" smooth="yes"/>
      <point x="420.0" y="91.0"/>
      <point x="425.0" y="103.0"/>
      <point x="425" y="113" type="curve" smooth="yes"/>
      <point x="425" y="397" type="line" smooth="yes"/>
      <point x="425.0" y="407.0"/>
      <point x="420.0" y="419.0"/>
      <point x="413" y="426" type="curve" smooth="yes"/>
      <point x="341" y="498" type="line" smooth="yes"/>
      <point x="334.0" y="505.0"/>
      <point x="322.0" y="510.0"/>
      <point x="312" y="510" type="curve" smooth="yes"/>
      <point x="221" y="510" type="line" smooth="yes"/>
      <point x="211.0" y="510.0"/>
      <point x="199.0" y="505.0"/>
      <point x="192" y="498" type="curve" smooth="yes"/>
      <point x="125" y="431" type="line" smooth="yes"/>
      <point x="122.0" y="428.0"/>
      <point x="119.0" y="429.0"/>
      <point x="119" y="434" type="curve" smooth="yes"/>
      <point x="119" y="714" type="line"/>
      <point x="17" y="714" type="line"/>
      <point x="17" y="0" type="line"/>
    </contour>
  </outline>
</glyph>
<glyph name="c" format="1">
  <advance width="442"/>
  <unicode hex="0063"/>
  <outline>
    <contour>
      <point x="425" y="136" type="line"/>
      <point x="425" y="113" type="line" smooth="yes"/>
      <point x="425" y="103"/>
      <point x="420.0" y="91.0"/>
      <point x="413" y="84" type="curve" smooth="yes"/>
      <point x="341" y="12" type="line" smooth="yes"/>
      <point x="334.0" y="5.0"/>
      <point x="322.0" y="-1.22464679915e-15"/>
      <point x="312" y="0" type="curve" smooth="yes"/>
      <point x="130" y="0" type="line" smooth="yes"/>
      <point x="120.0" y="1.22464679915e-15"/>
      <point x="108.0" y="5.0"/>
      <point x="101" y="12" type="curve" smooth="yes"/>
      <point x="29" y="84" type="line" smooth="yes"/>
      <point x="22.0" y="91.0"/>
      <point x="17" y="103"/>
      <point x="17" y="113" type="curve" smooth="yes"/>
      <point x="17" y="397" type="line" smooth="yes"/>
      <point x="17" y="407"/>
      <point x="22" y="419"/>
      <point x="29" y="426" type="curve" smooth="yes"/>
      <point x="101" y="498" type="line" smooth="yes"/>
      <point x="108" y="505"/>
      <point x="120.0" y="510.0"/>
      <point x="130" y="510" type="curve" smooth="yes"/>
      <point x="312" y="510" type="line" smooth="yes"/>
      <point x="322.0" y="510.0"/>
      <point x="334.0" y="505.0"/>
      <point x="341" y="498" type="curve" smooth="yes"/>
      <point x="413" y="426" type="line" smooth="yes"/>
      <point x="420.0" y="419.0"/>
      <point x="425" y="407"/>
      <point x="425" y="397" type="curve" smooth="yes"/>
      <point x="425" y="374" type="line"/>
      <point x="323" y="374" type="line"/>
      <point x="323" y="399" type="line" smooth="yes"/>
      <point x="323" y="403"/>
      <point x="318.0" y="408.0"/>
      <point x="314" y="408" type="curve" smooth="yes"/>
      <point x="128" y="408" type="line" smooth="yes"/>
      <point x="124.0" y="408.0"/>
      <point x="119.0" y="403.0"/>
      <point x="119" y="399" type="curve" smooth="yes"/>
      <point x="119" y="111" type="line" smooth="yes"/>
      <point x="119.0" y="107.0"/>
      <point x="124.0" y="102.0"/>
      <point x="128" y="102" type="curve" smooth="yes"/>
      <point x="314" y="102" type="line" smooth="yes"/>
      <point x="318.0" y="102.0"/>
      <point x="323" y="107"/>
      <point x="323" y="111" type="curve" smooth="yes"/>
      <point x="323" y="136" type="line"/>
    </contour>
  </outline>
</glyph>
<glyph name="d" format="1">
  <advance width="442"/>
  <unicode hex="0064"/>
  <outline>
    <contour>
      <point x="119" y="408" type="line"/>
      <point x="323" y="408" type="line"/>
      <point x="323" y="102" type="line"/>
      <point x="119" y="102" type="line"/>
    </contour>
    <contour>
      <point x="323" y="0" type="line"/>
      <point x="425" y="0" type="line"/>
      <point x="425" y="714" type="line"/>
      <point x="323" y="714" type="line"/>
      <point x="323" y="425" type="line"/>
      <point x="246" y="502" type="line" smooth="yes"/>
      <point x="241" y="507"/>
      <point x="233" y="510"/>
      <point x="226" y="510" type="curve" smooth="yes"/>
      <point x="114" y="510" type="line" smooth="yes"/>
      <point x="107" y="510"/>
      <point x="99" y="507"/>
      <point x="94" y="502" type="curve" smooth="yes"/>
      <point x="25" y="433" type="line" smooth="yes"/>
      <point x="20" y="428"/>
      <point x="17" y="420"/>
      <point x="17" y="413" type="curve" smooth="yes"/>
      <point x="17" y="97" type="line" smooth="yes"/>
      <point x="17" y="90"/>
      <point x="20" y="82"/>
      <point x="25" y="77" type="curve" smooth="yes"/>
      <point x="94" y="8" type="line" smooth="yes"/>
      <point x="99" y="3"/>
      <point x="107" y="0"/>
      <point x="114" y="0" type="curve" smooth="yes"/>
      <point x="226" y="0" type="line" smooth="yes"/>
      <point x="233" y="0"/>
      <point x="241" y="3"/>
      <point x="246" y="8" type="curve" smooth="yes"/>
      <point x="323" y="85" type="line"/>
    </contour>
  </outline>
</glyph>
<glyph name="e" format="1">
  <advance width="442"/>
  <unicode hex="0065"/>
  <outline>
    <contour>
      <point x="94" y="8" type="line" smooth="yes"/>
      <point x="99.0" y="3.0"/>
      <point x="107.0" y="0.0"/>
      <point x="114" y="0" type="curve" smooth="yes"/>
      <point x="328" y="0" type="line" smooth="yes"/>
      <point x="335.0" y="0.0"/>
      <point x="343.0" y="3.0"/>
      <point x="348" y="8" type="curve" smooth="yes"/>
      <point x="417" y="77" type="line" smooth="yes"/>
      <point x="422.0" y="82.0"/>
      <point x="425.0" y="90.0"/>
      <point x="425" y="97" type="curve" smooth="yes"/>
      <point x="425" y="153" type="line"/>
      <point x="323" y="153" type="line"/>
      <point x="323" y="111" type="line" smooth="yes"/>
      <point x="323.0" y="107.0"/>
      <point x="318.0" y="102.0"/>
      <point x="314" y="102" type="curve" smooth="yes"/>
      <point x="128" y="102" type="line" smooth="yes"/>
      <point x="124.0" y="102.0"/>
      <point x="119.0" y="107.0"/>
      <point x="119" y="111" type="curve" smooth="yes"/>
      <point x="119" y="195" type="line" smooth="yes"/>
      <point x="119.0" y="199.0"/>
      <point x="124.0" y="204.0"/>
      <point x="128" y="204" type="curve" smooth="yes"/>
      <point x="425" y="204" type="line"/>
      <point x="425" y="413" type="line" smooth="yes"/>
      <point x="425.0" y="420.0"/>
      <point x="422.0" y="428.0"/>
      <point x="417" y="433" type="curve" smooth="yes"/>
      <point x="348" y="502" type="line" smooth="yes"/>
      <point x="343.0" y="507.0"/>
      <point x="335.0" y="510.0"/>
      <point x="328" y="510" type="curve" smooth="yes"/>
      <point x="114" y="510" type="line" smooth="yes"/>
      <point x="107.0" y="510.0"/>
      <point x="99.0" y="507.0"/>
      <point x="94" y="502" type="curve" smooth="yes"/>
      <point x="25" y="433" type="line" smooth="yes"/>
      <point x="20.0" y="428.0"/>
      <point x="17.0" y="420.0"/>
      <point x="17" y="413" type="curve" smooth="yes"/>
      <point x="17" y="97" type="line" smooth="yes"/>
      <point x="17.0" y="90.0"/>
      <point x="20.0" y="82.0"/>
      <point x="25" y="77" type="curve" smooth="yes"/>
    </contour>
    <contour>
      <point x="119" y="399" type="line" smooth="yes"/>
      <point x="119.0" y="403.0"/>
      <point x="124.0" y="408.0"/>
      <point x="128" y="408" type="curve" smooth="yes"/>
      <point x="314" y="408" type="line" smooth="yes"/>
      <point x="318.0" y="408.0"/>
      <point x="323.0" y="403.0"/>
      <point x="323" y="399" type="curve" smooth="yes"/>
      <point x="323" y="315" type="line" smooth="yes"/>
      <point x="323.0" y="311.0"/>
      <point x="318.0" y="306.0"/>
      <point x="314" y="306" type="curve" smooth="yes"/>
      <point x="128" y="306" type="line" smooth="yes"/>
      <point x="124.0" y="306.0"/>
      <point x="119.0" y="311.0"/>
      <point x="119" y="315" type="curve" smooth="yes"/>
    </contour>
  </outline>
</glyph>
<glyph name="f" format="1">
  <advance width="340"/>
  <unicode hex="0066"/>
  <outline>
    <contour>
      <point x="323" y="612" type="line"/>
      <point x="119" y="612" type="line"/>
      <point x="119" y="0" type="line"/>
      <point x="17" y="0" type="line"/>
      <point x="17" y="601" type="line" smooth="yes"/>
      <point x="17" y="611"/>
      <point x="22" y="623"/>
      <point x="29" y="630" type="curve" smooth="yes"/>
      <point x="101" y="702" type="line" smooth="yes"/>
      <point x="108" y="709"/>
      <point x="120" y="714"/>
      <point x="130" y="714" type="curve" smooth="yes"/>
      <point x="323" y="714" type="line"/>
    </contour>
    <contour>
      <point x="51" y="408" type="line"/>
      <point x="51" y="510" type="line"/>
      <point x="323" y="510" type="line"/>
      <point x="323" y="408" type="line"/>
    </contour>
  </outline>
</glyph>
<glyph name="g" format="1">
  <advance width="442"/>
  <unicode hex="0067"/>
  <outline>
    <contour>
      <point x="119" y="102" type="line"/>
      <point x="119" y="408" type="line"/>
      <point x="323" y="408" type="line"/>
      <point x="323" y="102" type="line"/>
    </contour>
    <contour>
      <point x="94" y="-196" type="line" smooth="yes"/>
      <point x="99.0" y="-201.0"/>
      <point x="107.0" y="-204.0"/>
      <point x="114" y="-204" type="curve" smooth="yes"/>
      <point x="328" y="-204" type="line" smooth="yes"/>
      <point x="335.0" y="-204.0"/>
      <point x="343.0" y="-201.0"/>
      <point x="348" y="-196" type="curve" smooth="yes"/>
      <point x="417" y="-127" type="line" smooth="yes"/>
      <point x="422.0" y="-122.0"/>
      <point x="425.0" y="-114.0"/>
      <point x="425" y="-107" type="curve" smooth="yes"/>
      <point x="425" y="510" type="line"/>
      <point x="323" y="510" type="line"/>
      <point x="323" y="425" type="line"/>
      <point x="246" y="502" type="line" smooth="yes"/>
      <point x="241.0" y="507.0"/>
      <point x="233.0" y="510.0"/>
      <point x="226" y="510" type="curve" smooth="yes"/>
      <point x="114" y="510" type="line" smooth="yes"/>
      <point x="107.0" y="510.0"/>
      <point x="99.0" y="507.0"/>
      <point x="94" y="502" type="curve" smooth="yes"/>
      <point x="25" y="433" type="line" smooth="yes"/>
      <point x="20.0" y="428.0"/>
      <point x="17.0" y="420.0"/>
      <point x="17" y="413" type="curve" smooth="yes"/>
      <point x="17" y="97" type="line" smooth="yes"/>
      <point x="17.0" y="90.0"/>
      <point x="20.0" y="82.0"/>
      <point x="25" y="77" type="curve" smooth="yes"/>
      <point x="94" y="8" type="line" smooth="yes"/>
      <point x="99.0" y="3.0"/>
      <point x="107.0" y="0.0"/>
      <point x="114" y="0" type="curve" smooth="yes"/>
      <point x="226" y="0" type="line" smooth="yes"/>
      <point x="233.0" y="0.0"/>
      <point x="241.0" y="3.0"/>
      <point x="246" y="8" type="curve" smooth="yes"/>
      <point x="323" y="85" type="line"/>
      <point x="323" y="-102" type="line"/>
      <point x="119" y="-102" type="line"/>
      <point x="119" y="-51" type="line"/>
      <point x="17" y="-51" type="line"/>
      <point x="17" y="-107" type="line" smooth="yes"/>
      <point x="17.0" y="-114.0"/>
      <point x="20.0" y="-122.0"/>
      <point x="25" y="-127" type="curve" smooth="yes"/>
    </contour>
  </outline>
</glyph>
<glyph name="h" format="1">
  <advance width="442"/>
  <unicode hex="0068"/>
  <outline>
    <contour>
      <point x="119" y="0" type="line"/>
      <point x="119" y="399" type="line" smooth="yes"/>
      <point x="119" y="403"/>
      <point x="124" y="408"/>
      <point x="128" y="408" type="curve" smooth="yes"/>
      <point x="314" y="408" type="line" smooth="yes"/>
      <point x="318" y="408"/>
      <point x="323" y="403"/>
      <point x="323" y="399" type="curve" smooth="yes"/>
      <point x="323" y="0" type="line"/>
      <point x="425" y="0" type="line"/>
      <point x="425" y="413" type="line" smooth="yes"/>
      <point x="425" y="420"/>
      <point x="422" y="428"/>
      <point x="417" y="433" type="curve" smooth="yes"/>
      <point x="348" y="502" type="line" smooth="yes"/>
      <point x="343" y="507"/>
      <point x="335" y="510"/>
      <point x="328" y="510" type="curve" smooth="yes"/>
      <point x="216" y="510" type="line" smooth="yes"/>
      <point x="209" y="510"/>
      <point x="201" y="507"/>
      <point x="196" y="502" type="curve" smooth="yes"/>
      <point x="131" y="437" type="line" smooth="yes"/>
      <point x="126" y="432"/>
      <point x="119" y="435"/>
      <point x="119" y="442" type="curve" smooth="yes"/>
      <point x="119" y="714" type="line"/>
      <point x="17" y="714" type="line"/>
      <point x="17" y="0" type="line"/>
    </contour>
  </outline>
</glyph>
<glyph name="j" format="1">
  <advance width="136"/>
  <unicode hex="006A"/>
  <outline>
    <contour>
      <point x="-85" y="-102" type="line"/>
      <point x="17" y="-102" type="line"/>
      <point x="17" y="510" type="line"/>
      <point x="119" y="510" type="line"/>
      <point x="119" y="-119" type="line"/>
      <point x="34" y="-204" type="line"/>
      <point x="-85" y="-204" type="line"/>
    </contour>
    <contour>
      <point x="119" y="612" type="line"/>
      <point x="17" y="612" type="line"/>
      <point x="17" y="714" type="line"/>
      <point x="119" y="714" type="line"/>
    </contour>
  </outline>
</glyph>
<glyph name="k" format="1">
  <advance width="442"/>
  <unicode hex="006B"/>
  <outline>
    <contour>
      <point x="69" y="204" type="line"/>
      <point x="69" y="306" type="line"/>
      <point x="323" y="306" type="line"/>
      <point x="323" y="510" type="line"/>
      <point x="425" y="510" type="line"/>
      <point x="425" y="391" type="line"/>
      <point x="238" y="204" type="line"/>
    </contour>
    <contour>
      <point x="119" y="714" type="line"/>
      <point x="119" y="0" type="line"/>
      <point x="17" y="0" type="line"/>
      <point x="17" y="714" type="line"/>
    </contour>
    <contour>
      <point x="69" y="306" type="line"/>
      <point x="340" y="306" type="line"/>
      <point x="425" y="221" type="line"/>
      <point x="425" y="0" type="line"/>
      <point x="323" y="0" type="line"/>
      <point x="323" y="204" type="line"/>
      <point x="69" y="204" type="line"/>
    </contour>
  </outline>
</glyph>
<glyph name="l" format="1">
  <advance width="136"/>
  <unicode hex="006C"/>
  <outline>
    <contour>
      <point x="119" y="0" type="line"/>
      <point x="17" y="0" type="line"/>
      <point x="17" y="714" type="line"/>
      <point x="119" y="714" type="line"/>
    </contour>
  </outline>
</glyph>
<glyph name="m" format="1">
  <advance width="748"/>
  <unicode hex="006D"/>
  <outline>
    <contour>
      <point x="119" y="0" type="line"/>
      <point x="17" y="0" type="line"/>
      <point x="17" y="510" type="line"/>
      <point x="119" y="510" type="line"/>
    </contour>
    <contour>
      <point x="323" y="0" type="line"/>
      <point x="323" y="408" type="line"/>
      <point x="102" y="408" type="line"/>
      <point x="204" y="510" type="line"/>
      <point x="340" y="510" type="line"/>
      <point x="425" y="425" type="line"/>
      <point x="425" y="0" type="line"/>
    </contour>
    <contour>
      <point x="629" y="0" type="line"/>
      <point x="629" y="408" type="line"/>
      <point x="408" y="408" type="line"/>
      <point x="510" y="510" type="line"/>
      <point x="646" y="510" type="line"/>
      <point x="731" y="425" type="line"/>
      <point x="731" y="0" type="line"/>
    </contour>
  </outline>
</glyph>
<glyph name="n" format="1">
  <advance width="442"/>
  <unicode hex="006E"/>
  <outline>
    <contour>
      <point x="119" y="0" type="line"/>
      <point x="17" y="0" type="line"/>
      <point x="17" y="510" type="line"/>
      <point x="119" y="510" type="line"/>
    </contour>
    <contour>
      <point x="323" y="0" type="line"/>
      <point x="323" y="408" type="line"/>
      <point x="102" y="408" type="line"/>
      <point x="204" y="510" type="line"/>
      <point x="340" y="510" type="line"/>
      <point x="425" y="425" type="line"/>
      <point x="425" y="0" type="line"/>
    </contour>
  </outline>
</glyph>
<glyph name="o" format="1">
  <advance width="442"/>
  <unicode hex="006F"/>
  <outline>
    <contour>
      <point x="425" y="97" type="line" smooth="yes"/>
      <point x="425.0" y="90.0"/>
      <point x="422.0" y="82.0"/>
      <point x="417" y="77" type="curve" smooth="yes"/>
      <point x="348" y="8" type="line" smooth="yes"/>
      <point x="343.0" y="3.0"/>
      <point x="335.0" y="-8.57252759403e-16"/>
      <point x="328" y="0" type="curve" smooth="yes"/>
      <point x="114" y="0" type="line" smooth="yes"/>
      <point x="107.0" y="8.57252759403e-16"/>
      <point x="99.0" y="3.0"/>
      <point x="94" y="8" type="curve" smooth="yes"/>
      <point x="25" y="77" type="line" smooth="yes"/>
      <point x="20.0" y="82.0"/>
      <point x="17.0" y="90.0"/>
      <point x="17" y="97" type="curve" smooth="yes"/>
      <point x="17" y="413" type="line" smooth="yes"/>
      <point x="17.0" y="420.0"/>
      <point x="20.0" y="428.0"/>
      <point x="25" y="433" type="curve" smooth="yes"/>
      <point x="94" y="502" type="line" smooth="yes"/>
      <point x="99.0" y="507.0"/>
      <point x="107.0" y="510.0"/>
      <point x="114" y="510" type="curve" smooth="yes"/>
      <point x="328" y="510" type="line" smooth="yes"/>
      <point x="335.0" y="510.0"/>
      <point x="343.0" y="507.0"/>
      <point x="348" y="502" type="curve" smooth="yes"/>
      <point x="417" y="433" type="line" smooth="yes"/>
      <point x="422.0" y="428.0"/>
      <point x="425.0" y="420.0"/>
      <point x="425" y="413" type="curve" smooth="yes"/>
    </contour>
    <contour>
      <point x="119" y="102" type="line"/>
      <point x="323" y="102" type="line"/>
      <point x="323" y="408" type="line"/>
      <point x="119" y="408" type="line"/>
    </contour>
  </outline>
</glyph>
<glyph name="p" format="1">
  <advance width="442"/>
  <unicode hex="0070"/>
  <outline>
    <contour>
      <point x="317" y="102" type="curve" smooth="yes"/>
      <point x="125" y="102" type="line" smooth="yes"/>
      <point x="122" y="102"/>
      <point x="119" y="105"/>
      <point x="119" y="108" type="curve" smooth="yes"/>
      <point x="119" y="402" type="line" smooth="yes"/>
      <point x="119" y="405"/>
      <point x="122" y="408"/>
      <point x="125" y="408" type="curve" smooth="yes"/>
      <point x="317" y="408" type="line" smooth="yes"/>
      <point x="320" y="408"/>
      <point x="323" y="405"/>
      <point x="323" y="402" type="curve" smooth="yes"/>
      <point x="323" y="108" type="line" smooth="yes"/>
      <point x="323" y="105"/>
      <point x="320" y="102"/>
    </contour>
    <contour>
      <point x="119" y="510" type="line"/>
      <point x="17" y="510" type="line"/>
      <point x="17" y="-204" type="line"/>
      <point x="119" y="-204" type="line"/>
      <point x="119" y="79" type="line" smooth="yes"/>
      <point x="119" y="81"/>
      <point x="121" y="82"/>
      <point x="123" y="81" type="curve"/>
      <point x="192" y="12" type="line" smooth="yes"/>
      <point x="199" y="5"/>
      <point x="211" y="0"/>
      <point x="221" y="0" type="curve" smooth="yes"/>
      <point x="306" y="0" type="line" smooth="yes"/>
      <point x="316" y="0"/>
      <point x="328" y="5"/>
      <point x="335" y="12" type="curve" smooth="yes"/>
      <point x="413" y="90" type="line" smooth="yes"/>
      <point x="420" y="97"/>
      <point x="425" y="109"/>
      <point x="425" y="119" type="curve" smooth="yes"/>
      <point x="425" y="391" type="line" smooth="yes"/>
      <point x="425" y="401"/>
      <point x="420" y="413"/>
      <point x="413" y="420" type="curve" smooth="yes"/>
      <point x="335" y="498" type="line" smooth="yes"/>
      <point x="328" y="505"/>
      <point x="316" y="510"/>
      <point x="306" y="510" type="curve" smooth="yes"/>
      <point x="221" y="510" type="line" smooth="yes"/>
      <point x="211" y="510"/>
      <point x="199" y="505"/>
      <point x="192" y="498" type="curve" smooth="yes"/>
      <point x="123" y="429" type="line"/>
      <point x="121" y="428"/>
      <point x="119" y="429"/>
      <point x="119" y="431" type="curve" smooth="yes"/>
    </contour>
  </outline>
</glyph>
<glyph name="q" format="1">
  <advance width="442"/>
  <unicode hex="0071"/>
  <outline>
    <contour>
      <point x="323" y="510" type="line"/>
      <point x="425" y="510" type="line"/>
      <point x="425" y="-204" type="line"/>
      <point x="323" y="-204" type="line"/>
    </contour>
    <contour>
      <point x="119" y="408" type="line"/>
      <point x="119" y="102" type="line"/>
      <point x="323" y="102" type="line"/>
      <point x="233" y="12" type="line" smooth="yes"/>
      <point x="225.0" y="4.0"/>
      <point x="215.0" y="-1.34711147906e-15"/>
      <point x="204" y="0" type="curve" smooth="yes"/>
      <point x="136" y="0" type="line" smooth="yes"/>
      <point x="125.0" y="1.34711147906e-15"/>
      <point x="115.0" y="4.0"/>
      <point x="107" y="12" type="curve" smooth="yes"/>
      <point x="29" y="90" type="line" smooth="yes"/>
      <point x="21.0" y="98.0"/>
      <point x="17.0" y="108.0"/>
      <point x="17" y="119" type="curve" smooth="yes"/>
      <point x="17" y="391" type="line" smooth="yes"/>
      <point x="17.0" y="402.0"/>
      <point x="21.0" y="412.0"/>
      <point x="29" y="420" type="curve" smooth="yes"/>
      <point x="107" y="498" type="line" smooth="yes"/>
      <point x="115.0" y="506.0"/>
      <point x="125.0" y="510.0"/>
      <point x="136" y="510" type="curve" smooth="yes"/>
      <point x="204" y="510" type="line" smooth="yes"/>
      <point x="215.0" y="510.0"/>
      <point x="225.0" y="506.0"/>
      <point x="233" y="498" type="curve" smooth="yes"/>
      <point x="323" y="408" type="line"/>
    </contour>
  </outline>
</glyph>
<glyph name="r" format="1">
  <advance width="340"/>
  <unicode hex="0072"/>
  <outline>
    <contour>
      <point x="17" y="0" type="line"/>
      <point x="119" y="0" type="line"/>
      <point x="119" y="408" type="line"/>
      <point x="323" y="408" type="line"/>
      <point x="323" y="510" type="line"/>
      <point x="216" y="510" type="line" smooth="yes"/>
      <point x="209.0" y="510.0"/>
      <point x="201.0" y="507.0"/>
      <point x="196" y="502" type="curve" smooth="yes"/>
      <point x="119" y="425" type="line"/>
      <point x="119" y="510" type="line"/>
      <point x="17" y="510" type="line"/>
    </contour>
  </outline>
</glyph>
<glyph name="s" format="1">
  <advance width="442"/>
  <unicode hex="0073"/>
  <outline>
    <contour>
      <point x="29" y="84" type="line" smooth="yes"/>
      <point x="22" y="91"/>
      <point x="17" y="103"/>
      <point x="17" y="113" type="curve" smooth="yes"/>
      <point x="17" y="153" type="line"/>
      <point x="119" y="153" type="line"/>
      <point x="119" y="102" type="line"/>
      <point x="323" y="102" type="line"/>
      <point x="323" y="204" type="line"/>
      <point x="130" y="204" type="line" smooth="yes"/>
      <point x="120" y="204"/>
      <point x="108" y="209"/>
      <point x="101" y="216" type="curve" smooth="yes"/>
      <point x="29" y="288" type="line" smooth="yes"/>
      <point x="22" y="295"/>
      <point x="17" y="307"/>
      <point x="17" y="317" type="curve" smooth="yes"/>
      <point x="17" y="397" type="line" smooth="yes"/>
      <point x="17" y="407"/>
      <point x="22" y="419"/>
      <point x="29" y="426" type="curve" smooth="yes"/>
      <point x="101" y="498" type="line" smooth="yes"/>
      <point x="108" y="505"/>
      <point x="120" y="510"/>
      <point x="130" y="510" type="curve" smooth="yes"/>
      <point x="312" y="510" type="line" smooth="yes"/>
      <point x="322" y="510"/>
      <point x="334" y="505"/>
      <point x="341" y="498" type="curve" smooth="yes"/>
      <point x="413" y="426" type="line" smooth="yes"/>
      <point x="420" y="419"/>
      <point x="425" y="407"/>
      <point x="425" y="397" type="curve" smooth="yes"/>
      <point x="425" y="357" type="line"/>
      <point x="323" y="357" type="line"/>
      <point x="323" y="408" type="line"/>
      <point x="119" y="408" type="line"/>
      <point x="119" y="306" type="line"/>
      <point x="312" y="306" type="line" smooth="yes"/>
      <point x="322" y="306"/>
      <point x="334" y="301"/>
      <point x="341" y="294" type="curve" smooth="yes"/>
      <point x="413" y="222" type="line" smooth="yes"/>
      <point x="420" y="215"/>
      <point x="425" y="203"/>
      <point x="425" y="193" type="curve" smooth="yes"/>
      <point x="425" y="113" type="line" smooth="yes"/>
      <point x="425" y="103"/>
      <point x="420" y="91"/>
      <point x="413" y="84" type="curve" smooth="yes"/>
      <point x="341" y="12" type="line" smooth="yes"/>
      <point x="334" y="5"/>
      <point x="322" y="0"/>
      <point x="312" y="0" type="curve" smooth="yes"/>
      <point x="130" y="0" type="line" smooth="yes"/>
      <point x="120" y="0"/>
      <point x="108" y="5"/>
      <point x="101" y="12" type="curve" smooth="yes"/>
    </contour>
  </outline>
</glyph>
<glyph name="t" format="1">
  <advance width="340"/>
  <unicode hex="0074"/>
  <outline>
    <contour>
      <point x="323" y="102" type="line"/>
      <point x="323" y="0" type="line"/>
      <point x="119" y="0" type="line"/>
      <point x="17" y="102" type="line"/>
      <point x="17" y="714" type="line"/>
      <point x="119" y="714" type="line"/>
      <point x="119" y="102" type="line"/>
    </contour>
    <contour>
      <point x="51" y="408" type="line"/>
      <point x="51" y="510" type="line"/>
      <point x="323" y="510" type="line"/>
      <point x="323" y="408" type="line"/>
    </contour>
  </outline>
</glyph>
<glyph name="u" format="1">
  <advance width="442"/>
  <unicode hex="0075"/>
  <outline>
    <contour>
      <point x="323" y="510" type="line"/>
      <point x="323" y="111" type="line" smooth="yes"/>
      <point x="323" y="107"/>
      <point x="318" y="102"/>
      <point x="314" y="102" type="curve" smooth="yes"/>
      <point x="128" y="102" type="line" smooth="yes"/>
      <point x="124" y="102"/>
      <point x="119" y="107"/>
      <point x="119" y="111" type="curve" smooth="yes"/>
      <point x="119" y="510" type="line"/>
      <point x="17" y="510" type="line"/>
      <point x="17" y="113" type="line" smooth="yes"/>
      <point x="17" y="103"/>
      <point x="22" y="91"/>
      <point x="29" y="84" type="curve" smooth="yes"/>
      <point x="101" y="12" type="line" smooth="yes"/>
      <point x="108" y="5"/>
      <point x="120" y="0"/>
      <point x="130" y="0" type="curve" smooth="yes"/>
      <point x="221" y="0" type="line" smooth="yes"/>
      <point x="231" y="0"/>
      <point x="243" y="5"/>
      <point x="250" y="12" type="curve" smooth="yes"/>
      <point x="317" y="79" type="line" smooth="yes"/>
      <point x="320" y="82"/>
      <point x="323" y="81"/>
      <point x="323" y="76" type="curve" smooth="yes"/>
      <point x="323" y="0" type="line"/>
      <point x="425" y="0" type="line"/>
      <point x="425" y="510" type="line"/>
    </contour>
  </outline>
</glyph>
<glyph name="v" format="1">
  <advance width="442"/>
  <unicode hex="0076"/>
  <outline>
    <contour>
      <point x="136" y="0" type="line" smooth="yes"/>
      <point x="126" y="0"/>
      <point x="114.0" y="5.0"/>
      <point x="107" y="12" type="curve" smooth="yes"/>
      <point x="29" y="90" type="line" smooth="yes"/>
      <point x="22.0" y="97.0"/>
      <point x="17.0" y="109.0"/>
      <point x="17" y="119" type="curve" smooth="yes"/>
      <point x="17" y="510" type="line"/>
      <point x="119" y="510" type="line"/>
      <point x="119" y="111" type="line" smooth="yes"/>
      <point x="119.0" y="107.0"/>
      <point x="124.0" y="102.0"/>
      <point x="128" y="102" type="curve" smooth="yes"/>
      <point x="314" y="102" type="line" smooth="yes"/>
      <point x="318.0" y="102.0"/>
      <point x="323.0" y="107.0"/>
      <point x="323" y="111" type="curve" smooth="yes"/>
      <point x="323" y="510" type="line"/>
      <point x="425" y="510" type="line"/>
      <point x="425" y="164" type="line" smooth="yes"/>
      <point x="425" y="154"/>
      <point x="420" y="142"/>
      <point x="413" y="135" type="curve" smooth="yes"/>
      <point x="290" y="12" type="line" smooth="yes"/>
      <point x="283" y="5"/>
      <point x="271" y="0"/>
      <point x="261" y="0" type="curve" smooth="yes"/>
    </contour>
  </outline>
</glyph>
<glyph name="w" format="1">
  <advance width="748"/>
  <unicode hex="0077"/>
  <outline>
    <contour>
      <point x="290" y="12" type="curve" smooth="yes"/>
      <point x="343" y="65" type="line" smooth="yes"/>
      <point x="346.0" y="68.0"/>
      <point x="352.028706178" y="68.0284340877"/>
      <point x="355" y="65" type="curve" smooth="yes"/>
      <point x="407" y="12" type="line" smooth="yes"/>
      <point x="413.933018918" y="4.93365379528"/>
      <point x="426.0" y="0.0"/>
      <point x="436" y="0" type="curve" smooth="yes"/>
      <point x="567" y="0" type="line" smooth="yes"/>
      <point x="577.0" y="0.0"/>
      <point x="589.0" y="5.0"/>
      <point x="596" y="12" type="curve" smooth="yes"/>
      <point x="719" y="135" type="line" smooth="yes"/>
      <point x="726.0" y="142.0"/>
      <point x="731.0" y="154.0"/>
      <point x="731" y="164" type="curve" smooth="yes"/>
      <point x="731" y="510" type="line"/>
      <point x="629" y="510" type="line"/>
      <point x="629" y="111" type="line" smooth="yes"/>
      <point x="629.0" y="107.0"/>
      <point x="624.0" y="102.0"/>
      <point x="620" y="102" type="curve" smooth="yes"/>
      <point x="434" y="102" type="line" smooth="yes"/>
      <point x="430.0" y="102.0"/>
      <point x="425.0" y="107.0"/>
      <point x="425" y="111" type="curve" smooth="yes"/>
      <point x="425" y="510" type="line"/>
      <point x="323" y="510" type="line"/>
      <point x="323" y="111" type="line" smooth="yes"/>
      <point x="323.0" y="107.0"/>
      <point x="318.0" y="102.0"/>
      <point x="314" y="102" type="curve" smooth="yes"/>
      <point x="128" y="102" type="line" smooth="yes"/>
      <point x="124.0" y="102.0"/>
      <point x="119.0" y="107.0"/>
      <point x="119" y="111" type="curve" smooth="yes"/>
      <point x="119" y="510" type="line"/>
      <point x="17" y="510" type="line"/>
      <point x="17" y="113" type="line" smooth="yes"/>
      <point x="17.0" y="103.0"/>
      <point x="22.0" y="91.0"/>
      <point x="29" y="84" type="curve" smooth="yes"/>
      <point x="101" y="12" type="line" smooth="yes"/>
      <point x="108.0" y="5.0"/>
      <point x="120.0" y="0.0"/>
      <point x="130" y="0" type="curve" smooth="yes"/>
      <point x="261" y="0" type="line" smooth="yes"/>
      <point x="271.0" y="0.0"/>
      <point x="283.0" y="5.0"/>
    </contour>
  </outline>
</glyph>
<glyph name="x" format="1">
  <advance width="442"/>
  <unicode hex="0078"/>
  <outline>
    <contour>
      <point x="240" y="204" type="line"/>
      <point x="170" y="204" type="line"/>
      <point x="17" y="357" type="line"/>
      <point x="17" y="510" type="line"/>
      <point x="119" y="510" type="line"/>
      <point x="119" y="306" type="line"/>
      <point x="240" y="306" type="line"/>
    </contour>
    <contour>
      <point x="202" y="204" type="line"/>
      <point x="202" y="306" type="line"/>
      <point x="323" y="306" type="line"/>
      <point x="323" y="510" type="line"/>
      <point x="425" y="510" type="line"/>
      <point x="425" y="357" type="line"/>
      <point x="272" y="204" type="line"/>
    </contour>
    <contour>
      <point x="240" y="306" type="line"/>
      <point x="240" y="204" type="line"/>
      <point x="119" y="204" type="line"/>
      <point x="119" y="0" type="line"/>
      <point x="17" y="0" type="line"/>
      <point x="17" y="153" type="line"/>
      <point x="170" y="306" type="line"/>
    </contour>
    <contour>
      <point x="202" y="306" type="line"/>
      <point x="272" y="306" type="line"/>
      <point x="425" y="153" type="line"/>
      <point x="425" y="0" type="line"/>
      <point x="323" y="0" type="line"/>
      <point x="323" y="204" type="line"/>
      <point x="202" y="204" type="line"/>
    </contour>
  </outline>
</glyph>
<glyph name="y" format="1">
  <advance width="442"/>
  <unicode hex="0079"/>
  <outline>
    <contour>
      <point x="136" y="-204" type="curve" smooth="yes"/>
      <point x="306" y="-204" type="line" smooth="yes"/>
      <point x="316.0" y="-204.0"/>
      <point x="328.0" y="-199.0"/>
      <point x="335" y="-192" type="curve" smooth="yes"/>
      <point x="413" y="-114" type="line" smooth="yes"/>
      <point x="420.0" y="-107.0"/>
      <point x="425.0" y="-95.0"/>
      <point x="425" y="-85" type="curve" smooth="yes"/>
      <point x="425" y="510" type="line"/>
      <point x="323" y="510" type="line"/>
      <point x="323" y="108" type="line" smooth="yes"/>
      <point x="323.0" y="105.0"/>
      <point x="320.0" y="102.0"/>
      <point x="317" y="102" type="curve" smooth="yes"/>
      <point x="125" y="102" type="line" smooth="yes"/>
      <point x="122.0" y="102.0"/>
      <point x="119.0" y="105.0"/>
      <point x="119" y="108" type="curve" smooth="yes"/>
      <point x="119" y="510" type="line"/>
      <point x="17" y="510" type="line"/>
      <point x="17" y="119" type="line" smooth="yes"/>
      <point x="17.0" y="109.0"/>
      <point x="22.0" y="97.0"/>
      <point x="29" y="90" type="curve" smooth="yes"/>
      <point x="107" y="12" type="line" smooth="yes"/>
      <point x="114.0" y="5.0"/>
      <point x="126.0" y="0.0"/>
      <point x="136" y="0" type="curve" smooth="yes"/>
      <point x="221" y="0" type="line" smooth="yes"/>
      <point x="231.0" y="0.0"/>
      <point x="243.0" y="5.0"/>
      <point x="250" y="12" type="curve" smooth="yes"/>
      <point x="319" y="81" type="line"/>
      <point x="321" y="82"/>
      <point x="323.0" y="81.0"/>
      <point x="323" y="79" type="curve" smooth="yes"/>
      <point x="323" y="-96" type="line" smooth="yes"/>
      <point x="323.0" y="-99.0"/>
      <point x="320.0" y="-102.0"/>
      <point x="317" y="-102" type="curve" smooth="yes"/>
      <point x="125" y="-102" type="line" smooth="yes"/>
      <point x="122.0" y="-102.0"/>
      <point x="119.0" y="-99.0"/>
      <point x="119" y="-96" type="curve" smooth="yes"/>
      <point x="119" y="-51" type="line"/>
      <point x="17" y="-51" type="line"/>
      <point x="17" y="-85" type="line" smooth="yes"/>
      <point x="17.0" y="-95.0"/>
      <point x="22.0" y="-107.0"/>
      <point x="29" y="-114" type="curve" smooth="yes"/>
      <point x="107" y="-192" type="line" smooth="yes"/>
      <point x="114.0" y="-199.0"/>
      <point x="126.0" y="-204.0"/>
    </contour>
  </outline>
</glyph>
<glyph name="z" format="1">
  <advance width="442"/>
  <unicode hex="007A"/>
  <outline>
    <contour>
      <point x="425" y="0" type="line"/>
      <point x="17" y="0" type="line"/>
      <point x="17" y="209" type="line" smooth="yes"/>
      <point x="17.0" y="216.0"/>
      <point x="20.0" y="224.0"/>
      <point x="25" y="229" type="curve" smooth="yes"/>
      <point x="94" y="298" type="line" smooth="yes"/>
      <point x="99.0" y="303.0"/>
      <point x="107.0" y="306.0"/>
      <point x="114" y="306" type="curve" smooth="yes"/>
      <point x="323" y="306" type="line"/>
      <point x="323" y="408" type="line"/>
      <point x="17" y="408" type="line"/>
      <point x="17" y="510" type="line"/>
      <point x="425" y="510" type="line"/>
      <point x="425" y="301" type="line" smooth="yes"/>
      <point x="425.0" y="294.0"/>
      <point x="422.0" y="286.0"/>
      <point x="417" y="281" type="curve" smooth="yes"/>
      <point x="348" y="212" type="line" smooth="yes"/>
      <point x="343.0" y="207.0"/>
      <point x="335.0" y="204.0"/>
      <point x="328" y="204" type="curve" smooth="yes"/>
      <point x="119" y="204" type="line"/>
      <point x="119" y="102" type="line"/>
      <point x="425" y="102" type="line"/>
    </contour>
  </outline>
</glyph>
<glyph name="bar" format="1">
  <advance width="136"/>
  <unicode hex="007C"/>
  <outline>
    <contour>
      <point x="119" y="-204" type="line"/>
      <point x="17" y="-204" type="line"/>
      <point x="17" y="714" type="line"/>
      <point x="119" y="714" type="line"/>
    </contour>
  </outline>
</glyph>
<glyph name="periodcentered" format="1">
  <advance width="136"/>
  <unicode hex="00B7"/>
  <outline>
    <contour>
      <point x="119" y="306" type="line"/>
      <point x="119" y="204" type="line"/>
      <point x="17" y="204" type="line"/>
      <point x="17" y="306" type="line"/>
    </contour>
  </outline>
</glyph>
<glyph name="questiondown" format="1">
  <advance width="442"/>
  <unicode hex="00BF"/>
  <outline>
    <contour>
      <point x="323" y="306" type="line"/>
      <point x="425" y="306" type="line"/>
      <point x="425" y="187" type="line"/>
      <point x="340" y="102" type="line"/>
      <point x="119" y="102" type="line"/>
      <point x="119" y="-102" type="line"/>
      <point x="323" y="-102" type="line"/>
      <point x="323" y="-51" type="line"/>
      <point x="425" y="-51" type="line"/>
      <point x="425" y="-119" type="line"/>
      <point x="340" y="-204" type="line"/>
      <point x="102" y="-204" type="line"/>
      <point x="17" y="-119" type="line"/>
      <point x="17" y="119" type="line"/>
      <point x="102" y="204" type="line"/>
      <point x="323" y="204" type="line"/>
    </contour>
    <contour>
      <point x="323" y="408" type="line"/>
      <point x="323" y="510" type="line"/>
      <point x="425" y="510" type="line"/>
      <point x="425" y="408" type="line"/>
    </contour>
  </outline>
</glyph>
<glyph name="endash" format="1">
  <advance width="442"/>
  <unicode hex="2013"/>
  <outline>
    <contour>
      <point x="17" y="306" type="line"/>
      <point x="425" y="306" type="line"/>
      <point x="425" y="204" type="line"/>
      <point x="17" y="204" type="line"/>
    </contour>
  </outline>
</glyph>
<glyph name="emdash" format="1">
  <advance width="748"/>
  <unicode hex="2014"/>
  <outline>
    <contour>
      <point x="17" y="306" type="line"/>
      <point x="731" y="306" type="line"/>
      <point x="731" y="204" type="line"/>
      <point x="17" y="204" type="line"/>
    </contour>
  </outline>
</glyph>
<glyph name="quoteleft" format="1">
  <advance width="136"/>
  <unicode hex="2018"/>
  <outline>
    <contour>
      <point x="119" y="714" type="line"/>
      <point x="119" y="510" type="line"/>
      <point x="17" y="510" type="line"/>
      <point x="17" y="714" type="line"/>
    </contour>
  </outline>
</glyph>
<glyph name="quotedblleft" format="1">
  <advance width="272"/>
  <unicode hex="201C"/>
  <outline>
    <contour>
      <point x="119" y="714" type="line"/>
      <point x="119" y="510" type="line"/>
      <point x="17" y="510" type="line"/>
      <point x="17" y="714" type="line"/>
    </contour>
    <contour>
      <point x="255" y="714" type="line"/>
      <point x="255" y="510" type="line"/>
      <point x="153" y="510" type="line"/>
      <point x="153" y="714" type="line"/>
    </contour>
  </outline>
</glyph>
